<svg width="200" height="47" viewBox="0 0 200 47" fill="none" xmlns="http://www.w3.org/2000/svg">
<path d="M139.092 27.5881C139.081 26.1892 139.358 24.803 139.906 23.5158C140.43 22.278 141.189 21.153 142.14 20.2027C143.092 19.247 144.223 18.4878 145.468 17.9681C146.75 17.4244 148.129 17.1477 149.522 17.1546C150.921 17.1434 152.307 17.4203 153.594 17.9681C154.831 18.5017 155.959 19.2593 156.921 20.2027C157.882 21.1488 158.65 22.2727 159.182 23.5117C159.73 24.7989 160.009 26.1849 160 27.584C160.004 28.9768 159.726 30.3559 159.182 31.6379C158.651 32.8913 157.883 34.0307 156.921 34.994C155.965 35.9508 154.836 36.7174 153.594 37.2532C152.308 37.8051 150.921 38.0838 149.522 38.0717C148.129 38.0765 146.75 37.798 145.468 37.2532C144.219 36.7288 143.088 35.9607 142.14 34.994C141.189 34.029 140.43 32.8913 139.906 31.642C139.363 30.3597 139.086 28.9806 139.092 27.5881V27.5881ZM143.185 27.5881C143.18 28.4362 143.347 29.2766 143.676 30.0581C143.99 30.8157 144.451 31.5035 145.033 32.082C145.612 32.6621 146.3 33.1221 147.057 33.4356C147.839 33.7653 148.679 33.932 149.528 33.9258C150.376 33.9308 151.217 33.764 151.999 33.4356C152.756 33.1221 153.444 32.6621 154.023 32.082C154.601 31.5013 155.06 30.814 155.376 30.0581C155.702 29.2756 155.869 28.4358 155.865 27.5881C155.872 26.7477 155.706 25.9149 155.376 25.1417C155.056 24.3937 154.596 23.7133 154.023 23.1362C153.442 22.5599 152.755 22.1025 151.999 21.7897C151.217 21.4607 150.376 21.294 149.528 21.2996C148.679 21.2939 147.839 21.4606 147.057 21.7897C146.3 22.101 145.612 22.5586 145.033 23.1362C144.458 23.7119 143.999 24.3927 143.68 25.1417C143.35 25.9146 143.182 26.7475 143.189 27.5881H143.185Z" fill="white"/>
<path d="M49.484 17.1576C50.8829 17.1463 52.2691 17.4232 53.5563 17.971C54.7893 18.5007 55.9118 19.2573 56.8653 20.2015C57.814 21.1523 58.5725 22.2754 59.1 23.5106C59.6473 24.7979 59.9242 26.184 59.9135 27.5829V38.0655H49.484C48.0911 38.0702 46.7119 37.7917 45.43 37.2469C44.1768 36.7183 43.0383 35.951 42.078 34.9877C41.1175 34.0271 40.3505 32.8909 39.8188 31.6408C39.2712 30.3599 38.9926 28.98 39.0002 27.5869C38.9905 26.1877 39.2692 24.8015 39.8188 23.5146C40.3477 22.273 41.1153 21.1473 42.078 20.2015C43.0458 19.2536 44.1828 18.4957 45.43 17.9669C46.7126 17.4253 48.0918 17.1499 49.484 17.1576ZM55.7726 33.9185V27.5869C55.7791 26.7464 55.6122 25.9136 55.2825 25.1405C54.9634 24.3917 54.5038 23.711 53.9288 23.135C53.3518 22.5615 52.6713 22.1025 51.9233 21.7824C51.1506 21.4522 50.3181 21.2853 49.4778 21.2923C48.6294 21.2865 47.7887 21.4532 47.0068 21.7824C46.2485 22.0934 45.5603 22.5533 44.9829 23.135C44.4078 23.711 43.9483 24.3917 43.6292 25.1405C43.3023 25.9145 43.1356 26.7467 43.1391 27.5869C43.1339 28.4349 43.3006 29.2752 43.6292 30.0569C43.9408 30.8152 44.4011 31.5033 44.9829 32.0808C45.5603 32.6613 46.2486 33.1196 47.0068 33.4283C47.7887 33.7575 48.6294 33.9243 49.4778 33.9185H55.7726Z" fill="white"/>
<path d="M111.282 17.1605C112.681 17.1492 114.067 17.4261 115.354 17.9739C116.587 18.5036 117.709 19.2603 118.663 20.2045C119.612 21.1547 120.371 22.2779 120.898 23.5135C121.445 24.8009 121.722 26.187 121.711 27.5858V38.0684H111.282C109.889 38.0731 108.51 37.7946 107.229 37.2498C105.975 36.721 104.837 35.9537 103.876 34.9906C102.916 34.0295 102.148 32.8934 101.615 31.6438C101.07 30.3622 100.794 28.9825 100.803 27.5899C100.792 26.1911 101.068 24.805 101.615 23.5176C102.145 22.2761 102.913 21.1504 103.876 20.2045C104.844 19.2567 105.981 18.4987 107.229 17.9698C108.511 17.4282 109.89 17.1528 111.282 17.1605V17.1605ZM117.57 33.9214V27.5899C117.577 26.7494 117.41 25.9166 117.08 25.1434C116.762 24.3943 116.302 23.7134 115.726 23.138C115.149 22.5644 114.469 22.1054 113.721 21.7853C112.948 21.4551 112.116 21.2883 111.276 21.2952C110.427 21.2895 109.587 21.4562 108.806 21.7853C108.047 22.0961 107.359 22.5561 106.782 23.138C106.206 23.7134 105.746 24.3943 105.428 25.1434C105.1 25.9172 104.933 26.7496 104.937 27.5899C104.931 28.438 105.099 29.2783 105.428 30.0599C105.739 30.8185 106.199 31.5068 106.782 32.0837C107.359 32.6644 108.047 33.1227 108.806 33.4313C109.587 33.7604 110.427 33.9271 111.276 33.9214H117.57Z" fill="white"/>
<path d="M87.49 17.9883V38.0698H83.2949V17.9883H87.49Z" fill="white"/>
<path d="M100.799 18.0413V22.1862C99.9592 22.1798 99.1271 22.3467 98.3546 22.6763C97.6047 22.9922 96.9238 23.4518 96.3502 24.029C95.7755 24.6035 95.3163 25.2829 94.9975 26.0304C94.6676 26.8038 94.5011 27.637 94.5084 28.4778V38.0961H90.3225L90.3225 28.4625C90.3129 27.0639 90.5916 25.6784 91.1411 24.3922C91.6679 23.1533 92.4327 22.0297 93.3921 21.0853C94.3594 20.138 95.4957 19.3803 96.7421 18.8517C98.0234 18.308 99.4021 18.0313 100.794 18.0382L100.799 18.0413Z" fill="white"/>
<path d="M81.2553 17.9883L70.5624 38.5514L59.9121 17.9883H64.4817C64.9082 18.8108 65.3957 19.7491 65.944 20.797C66.4924 21.845 67.0407 22.9173 67.5891 23.9958C68.1374 25.0803 68.6797 26.1221 69.2098 27.1274C69.7398 28.1327 70.1907 29.004 70.5563 29.7351C71.0132 28.8517 71.5372 27.8403 72.1343 26.6949C72.7314 25.5494 73.3163 24.4162 73.8952 23.289C74.474 22.1618 75.0101 21.12 75.4976 20.1573C75.985 19.2007 76.3628 18.4757 76.643 17.9883H81.2553V17.9883Z" fill="white"/>
<path d="M137.303 34.2235V38.5488H135.166C133.677 38.5488 132.265 38.2639 130.938 37.7005C129.611 37.1372 128.445 36.3473 127.441 35.3437C126.438 34.3401 125.654 33.1746 125.085 31.8472C124.515 30.5198 124.236 29.1083 124.236 27.6191V8H128.562V19.858H137.303V24.1832H128.562V27.6255C128.562 28.532 128.73 29.3932 129.073 30.2026C129.416 31.0119 129.883 31.7177 130.485 32.3134C131.08 32.9156 131.786 33.3818 132.596 33.7185C133.405 34.0616 134.266 34.23 135.173 34.23H137.303V34.2235Z" fill="white"/>
</svg>
