<svg width="200" height="47" viewBox="0 0 200 47" fill="none" xmlns="http://www.w3.org/2000/svg">
<path d="M84.8281 33.2212H87.4909C87.9747 33.2212 88.3748 33.2865 88.6876 33.4179C89.0005 33.5485 89.2479 33.7159 89.4297 33.9199C89.6116 34.1232 89.7389 34.3526 89.8081 34.6039C89.8808 34.8579 89.9135 35.1019 89.9135 35.3346C89.9135 35.5672 89.8771 35.8146 89.8081 36.0659C89.7353 36.3206 89.6116 36.5459 89.4297 36.7499C89.2479 36.9533 89.0005 37.1206 88.6876 37.252C88.3748 37.3826 87.9747 37.4479 87.4909 37.4479H85.854V40.784H84.8281V33.2139V33.2212ZM85.854 36.5573H87.1999C87.3999 36.5573 87.5964 36.5426 87.7928 36.5099C87.9892 36.4773 88.1638 36.4186 88.3166 36.3313C88.4694 36.2479 88.5931 36.1239 88.684 35.9639C88.775 35.8039 88.8222 35.5966 88.8222 35.3386C88.8222 35.0799 88.775 34.8726 88.684 34.7126C88.5894 34.5526 88.4694 34.4292 88.3166 34.3452C88.1638 34.2619 87.9892 34.1999 87.7928 34.1672C87.5964 34.1346 87.3999 34.1199 87.1999 34.1199H85.854V36.5573Z" fill="white"/>
<path d="M93.8804 33.2217H94.8117L98.0531 40.7918H96.8564L96.0958 38.9218H92.491L91.7416 40.7918H90.5449L93.8804 33.2217ZM95.7211 38.0231L94.3097 34.5497H94.2877L92.855 38.0231H95.7211Z" fill="white"/>
<path d="M100.101 33.2217H102.764C103.248 33.2217 103.648 33.287 103.96 33.4183C104.273 33.549 104.52 33.7164 104.702 33.9204C104.884 34.1237 105.012 34.353 105.081 34.6044C105.15 34.855 105.186 35.1024 105.186 35.3351C105.186 35.5677 105.142 35.8117 105.059 36.0371C104.975 36.2631 104.852 36.4664 104.692 36.6484C104.532 36.8304 104.335 36.9831 104.102 37.1064C103.87 37.2304 103.611 37.3071 103.328 37.3358L105.477 40.7918H104.193L102.269 37.4558H101.123V40.7918H100.098V33.2217H100.101ZM101.127 36.5577H102.472C102.673 36.5577 102.869 36.5431 103.066 36.5104C103.262 36.4771 103.436 36.4191 103.59 36.3317C103.742 36.2484 103.866 36.1244 103.957 35.9644C104.048 35.8044 104.095 35.5971 104.095 35.3391C104.095 35.0804 104.048 34.873 103.957 34.713C103.862 34.553 103.742 34.4297 103.59 34.3457C103.436 34.2624 103.262 34.2004 103.066 34.1677C102.869 34.135 102.673 34.1204 102.472 34.1204H101.127V36.5577Z" fill="white"/>
<path d="M107.705 33.2217H108.73V40.7918H107.705V33.2217Z" fill="white"/>
<path d="M111.973 39.2124C112.159 39.4884 112.395 39.6958 112.683 39.8271C112.97 39.9578 113.268 40.0231 113.577 40.0231C113.748 40.0231 113.923 39.9978 114.101 39.9431C114.279 39.8885 114.443 39.8085 114.589 39.7031C114.734 39.5978 114.854 39.4631 114.945 39.3065C115.036 39.1504 115.084 38.9684 115.084 38.7611C115.084 38.4704 114.992 38.2444 114.807 38.0918C114.621 37.9391 114.392 37.8117 114.115 37.7064C113.843 37.6044 113.541 37.5024 113.217 37.4077C112.893 37.3131 112.591 37.1791 112.319 37.0077C112.046 36.8371 111.813 36.6077 111.627 36.3164C111.442 36.0291 111.351 35.6364 111.351 35.145C111.351 34.9237 111.399 34.6904 111.497 34.4397C111.591 34.1883 111.744 33.963 111.951 33.7557C112.159 33.5483 112.424 33.3777 112.748 33.2357C113.071 33.0977 113.461 33.0283 113.919 33.0283C114.334 33.0283 114.727 33.0863 115.106 33.199C115.484 33.3123 115.814 33.545 116.098 33.8943L115.266 34.6544C115.138 34.4544 114.956 34.2944 114.719 34.1743C114.483 34.0543 114.217 33.9923 113.919 33.9923C113.621 33.9923 113.395 34.0283 113.21 34.105C113.021 34.1817 112.868 34.2757 112.755 34.3924C112.643 34.509 112.563 34.6364 112.515 34.771C112.468 34.905 112.446 35.0324 112.446 35.145C112.446 35.4657 112.537 35.713 112.723 35.8837C112.908 36.0551 113.137 36.193 113.413 36.3024C113.687 36.4077 113.988 36.5057 114.312 36.5897C114.636 36.6731 114.938 36.7931 115.211 36.9457C115.484 37.0984 115.716 37.3064 115.902 37.5677C116.088 37.8298 116.178 38.1864 116.178 38.6411C116.178 39.0051 116.109 39.3324 115.971 39.6231C115.833 39.9145 115.644 40.1618 115.411 40.3618C115.174 40.5618 114.898 40.7145 114.577 40.8198C114.257 40.9251 113.915 40.9798 113.552 40.9798C113.068 40.9798 112.606 40.8965 112.173 40.7251C111.737 40.5545 111.391 40.2891 111.137 39.9325L111.981 39.2051L111.973 39.2124Z" fill="white"/>
<path d="M52.4516 16.627C51.975 15.961 51.313 15.463 50.48 15.1389C51.0329 14.7676 51.3748 14.3063 51.7168 13.7129C52.106 13.0476 52.3024 12.3236 52.3024 11.5595C52.3024 10.7482 52.0805 9.95885 51.6476 9.2135C51.2075 8.46415 50.5964 7.90414 49.8252 7.54747C49.0613 7.19079 48.0428 7.00879 46.7987 7.00879H40L40.7021 7.84947L40.7094 23.6291L40.0073 24.4545L47.0861 24.4618C48.1264 24.4618 49.014 24.3638 49.7234 24.1711C50.4472 23.9745 51.062 23.6798 51.5494 23.2904C52.0369 22.9051 52.4479 22.3451 52.7789 21.6317C53.1063 20.9191 53.2737 20.1444 53.2737 19.3224C53.2737 18.2963 52.9972 17.387 52.4516 16.627ZM50.3526 19.4384C50.3526 19.973 50.2544 20.4497 50.0616 20.8571C49.8725 21.2571 49.6288 21.5664 49.3377 21.7737C49.0431 21.9811 48.6685 22.1338 48.2174 22.2251C47.9664 22.2798 47.508 22.3051 46.8569 22.3051H43.4885V16.5723H46.5695C47.5262 16.5723 48.2646 16.667 48.7667 16.8597C49.2577 17.045 49.6324 17.3543 49.9198 17.8123C50.2072 18.2743 50.3526 18.8204 50.3526 19.4424V19.4384ZM49.1304 13.1782C48.8758 13.5783 48.6975 13.8296 48.2283 13.9896C47.8572 14.1203 47.2207 14.1856 46.3404 14.1856H43.4921V9.16616H45.9075C46.9915 9.16616 47.759 9.24617 48.1992 9.40617C48.6175 9.55551 48.9303 9.83151 49.1559 10.2462C49.3851 10.6649 49.5015 11.1595 49.5015 11.7195C49.5015 12.3089 49.3777 12.8002 49.1341 13.1822L49.1304 13.1782Z" fill="white"/>
<path d="M71.0453 9.21624C70.3215 8.54689 69.3902 7.97221 68.4226 7.60154C67.4041 7.21953 66.3419 7.01953 65.3488 7.01953C64.3558 7.01953 63.2936 7.21953 62.275 7.60488C61.3075 7.97622 60.3762 8.55089 59.6524 9.22024C57.8226 10.9223 57.0078 12.9343 57.0078 15.7384C57.0078 17.0664 57.277 18.4524 57.7498 19.5438C58.2518 20.6965 58.9503 21.6605 59.827 22.4138C61.3802 23.7559 63.2899 24.4612 65.3488 24.4612C67.4077 24.4612 69.3174 23.7525 70.8707 22.4138C71.7474 21.6605 72.4458 20.6965 72.9478 19.5438C73.417 18.4558 73.6898 17.0697 73.6898 15.7384C73.6898 12.9343 72.875 10.9223 71.0453 9.22024V9.21624ZM69.121 20.1585C68.1061 21.3478 66.8366 21.9518 65.3488 21.9518C63.861 21.9518 62.5915 21.3478 61.5766 20.1585C60.5508 18.9798 60.0306 17.4917 60.0306 15.7384C60.0416 13.945 60.5545 12.4463 61.5584 11.2823C62.5697 10.1116 63.8102 9.53625 65.3488 9.53291C66.8875 9.53625 68.1279 10.1116 69.1428 11.2823C70.1469 12.4463 70.6634 13.949 70.6707 15.7384C70.6707 17.4917 70.1505 18.9758 69.1246 20.1585H69.121Z" fill="white"/>
<path d="M89.3249 8.16831V16.1125C89.3213 17.8185 89.2777 18.7645 89.1758 19.2699C89.0339 19.8632 88.7465 20.3652 88.2918 20.8012C87.4661 21.5872 86.4403 21.9692 85.1599 21.9692C83.8795 21.9692 82.8536 21.5872 82.0279 20.8012C81.5732 20.3612 81.2822 19.8592 81.144 19.2739C81.0421 18.7539 80.9948 17.8078 80.9912 16.1125V8.17164C81.0858 8.07031 81.2858 7.83363 81.4422 7.62963L81.6605 7.33496H77.4336L78.132 8.16831L78.1465 17.0878C78.1538 18.5865 78.2812 19.6772 78.5322 20.4232C78.8159 21.2779 79.2742 22.0019 79.929 22.6346C81.1548 23.8426 82.9118 24.4573 85.1562 24.4573C87.4006 24.4573 89.1576 23.846 90.3833 22.6386C91.038 22.0052 91.4967 21.2819 91.78 20.4266C92.0347 19.6772 92.162 18.5865 92.166 17.0912L92.1807 8.17898L92.8754 7.33896H88.6301L89.3213 8.17164L89.3249 8.16831Z" fill="white"/>
<path d="M109.469 23.2463L104.346 16.8589L104.648 16.7749C106.067 16.3862 107.104 15.8295 107.723 15.1202C108.337 14.4328 108.65 13.4835 108.65 12.2975C108.65 11.0534 108.257 10.0168 107.446 9.1254C106.486 8.05938 105.048 7.48137 103.037 7.35737L101.76 7.33203H96.8276L97.5156 8.16471V23.3157L96.8242 24.145H100.851L100.16 23.3157V17.2662H101.328L106.507 24.0724L106.562 24.145H110.855L109.465 23.2463H109.469ZM105.649 12.4901C105.649 13.3015 105.322 13.9635 104.681 14.4688C104.059 14.9562 103.226 15.2035 102.204 15.2035H100.167V9.43474H102.382C103.397 9.43807 104.176 9.69674 104.761 10.2494C105.358 10.8021 105.656 11.5554 105.649 12.4901Z" fill="white"/>
<path d="M114.374 8.16872V21.431C114.374 23.7777 114.162 25.4871 113.755 26.3744C113.333 27.2804 112.504 27.7864 111.304 27.8731L109.91 27.9464L110.842 28.2624C110.842 28.2624 110.874 28.2771 110.907 28.2845C111.536 28.4811 112.118 28.5758 112.69 28.5758C113.577 28.5758 114.37 28.3751 115.05 27.9824C115.738 27.5824 116.247 27.0404 116.57 26.3637C117.025 25.4217 117.254 24.0757 117.254 22.359V8.16471L117.949 7.33203H113.679L114.37 8.16471L114.374 8.16872Z" fill="white"/>
<path d="M145.152 8.17164C145.243 8.06631 145.447 7.8263 145.6 7.63363L145.836 7.33496H141.609L142.304 8.16831V23.3153L141.605 24.1446H145.847L145.148 23.3153V8.17164H145.152Z" fill="white"/>
<path d="M135.27 9.21624C134.546 8.54689 133.615 7.97221 132.647 7.60154C131.629 7.21953 130.567 7.01953 129.574 7.01953C128.581 7.01953 127.519 7.21953 126.5 7.60488C125.533 7.97622 124.601 8.55089 123.877 9.22024C122.048 10.9223 121.232 12.9343 121.232 15.7384C121.232 17.0664 121.502 18.4558 121.974 19.5438C122.476 20.6965 123.175 21.6605 124.052 22.4138C125.605 23.7559 127.515 24.4612 129.574 24.4612C131.633 24.4612 133.542 23.7525 135.096 22.4138C135.972 21.6605 136.671 20.6965 137.173 19.5438C137.642 18.4558 137.915 17.0697 137.915 15.7384C137.915 12.9343 137.1 10.9223 135.27 9.22024V9.21624ZM134.896 15.7384C134.896 17.4917 134.375 18.9758 133.349 20.1585C132.335 21.3478 131.065 21.9518 129.577 21.9518C128.089 21.9518 126.82 21.3478 125.805 20.1585C124.779 18.9798 124.259 17.4917 124.259 15.7384C124.267 13.945 124.783 12.4463 125.787 11.2823C126.798 10.1116 128.039 9.53625 129.577 9.53291C131.116 9.53625 132.357 10.1116 133.371 11.2823C134.375 12.4463 134.892 13.949 134.899 15.7384H134.896Z" fill="white"/>
<path d="M158.573 15.1342C157.853 14.7375 156.893 14.3081 155.787 13.8968C154.805 13.5441 154.095 13.1808 153.677 12.8274C153.263 12.4568 153.051 11.9834 153.051 11.4234C153.051 10.8267 153.317 10.3361 153.848 9.95739C154.335 9.59005 154.979 9.40471 155.758 9.40471C156.743 9.40471 157.806 9.80139 158.919 10.5794L159.057 10.6741L161 8.41536L159.901 8.39736C158.421 7.42934 157.115 7 155.678 7H155.645C154.081 7 152.804 7.42201 151.739 8.28802C150.72 9.14271 150.207 10.2267 150.207 11.5181C150.203 13.5881 151.36 15.0428 153.743 15.9635C155.459 16.6142 156.853 17.2729 157.373 17.6729C157.886 18.0769 158.133 18.6549 158.133 19.4442C158.141 20.2156 157.842 20.8883 157.257 21.4123C156.74 21.849 155.994 22.0596 154.976 22.0596C154.957 22.0596 154.939 22.0596 154.921 22.0596C153.51 22.0596 152.175 21.3469 150.96 19.9389L150.833 19.7936L148.562 21.987L149.654 22.1036L149.741 22.187C150.655 22.9803 151.579 23.6097 152.349 23.9583C153.059 24.293 153.913 24.4603 154.889 24.4603C154.932 24.4603 154.976 24.4603 155.019 24.4603C156.783 24.4603 158.137 23.9917 159.268 22.9836C160.447 21.951 160.996 20.7543 160.996 19.2156C160.996 18.0002 160.625 16.9929 159.858 16.1342C159.453 15.7088 159.031 15.3815 158.573 15.1342Z" fill="white"/>
</svg>
