<svg width="200" height="47" viewBox="0 0 200 47" fill="none" xmlns="http://www.w3.org/2000/svg">
<path d="M40 37.748H67.7411V10H40V37.748ZM57.7808 12.1191C62.6841 13.7265 66.2275 18.3761 66.2408 23.8687C66.2541 29.272 62.7823 33.9105 57.7808 35.6244V12.1191ZM53.8661 11.4903C54.7519 11.4903 55.6955 11.6085 56.4815 11.765C56.4815 18.0514 50.4026 23.2249 44.129 23.2249L41.5058 23.221C41.936 16.777 47.2672 11.4903 53.8661 11.4903ZM44.1312 24.5337C50.4037 24.5337 56.4803 29.7016 56.4803 35.9819C55.6955 36.1423 54.7048 36.2616 53.8661 36.2616C47.265 36.2527 41.7534 30.9499 41.5042 24.5337H44.1312ZM77.0275 26.312V24.5631H82.7999V22.3335H77.0264V19.0871H83.1679V16.8625H74.6636V26.211C74.6636 28.5743 75.6699 30.1906 78.0321 30.5225C78.0793 30.5342 78.1259 30.5431 78.1692 30.5442H78.212C78.454 30.5714 78.7009 30.5891 78.9602 30.5891H83.3317V28.3673H78.9796C78.2286 28.3673 77.0275 27.9965 77.0275 26.312ZM85.0107 30.5925H87.3746V16.8592H85.0107V30.5925ZM94.3143 20.3481C91.3265 20.3481 89.0902 22.4068 89.0902 25.6121V25.6915C89.0902 28.8186 91.2471 30.8372 94.3737 30.8372C95.8773 30.8372 97.2821 30.4221 98.5682 29.0556L97.1434 27.6707C96.3913 28.4228 95.6592 28.8186 94.4525 28.8186C92.6914 28.8186 91.5241 27.7895 91.4447 26.206H99.2009C99.2403 25.8102 99.2403 25.3751 99.2403 25.3751C99.2414 22.5844 97.2821 20.3481 94.3143 20.3481ZM91.5047 24.5437C91.6035 23.3359 92.8307 22.3662 94.3143 22.3662C95.6991 22.3662 96.827 23.3559 96.827 24.5437H91.5047ZM105.884 22.4656C106.952 22.4656 107.744 22.8619 108.416 23.554L109.881 22.0299C108.733 20.8027 107.368 20.3082 105.884 20.3082C102.876 20.3082 100.462 22.5444 100.462 25.5921C100.462 28.6398 102.876 30.8766 105.884 30.8766C107.368 30.8766 108.733 30.3821 109.881 29.1549L108.416 27.6308C107.744 28.3235 106.952 28.7192 105.884 28.7192C104.142 28.7192 102.816 27.3927 102.816 25.5921C102.816 23.7916 104.142 22.4656 105.884 22.4656ZM113.716 26.3159H113.713V22.8097H115.863V20.6617H113.716V16.8597H111.352V26.4552L111.359 26.4546C111.426 28.6859 112.44 30.2056 114.72 30.5258C114.768 30.5375 114.814 30.5464 114.858 30.5469H114.9C115.142 30.5741 115.389 30.5925 115.649 30.5925H115.899L115.907 28.3706H115.668C114.917 28.3706 113.716 28.0004 113.716 26.3159ZM120.197 22.1387V20.6623H117.852V30.5925H120.197V25.3707C120.197 23.7355 121.241 22.7104 122.875 22.7104C123.249 22.7104 123.585 22.7492 123.86 22.8092V20.5241C123.626 20.4877 123.389 20.4678 123.152 20.4647C121.733 20.4652 120.669 21.1157 120.197 22.1387ZM129.641 20.3664C126.626 20.3664 124.222 22.651 124.222 25.6271C124.222 28.6015 126.626 30.8877 129.641 30.8877C132.634 30.8877 135.058 28.6015 135.058 25.6271C135.057 22.6515 132.634 20.3664 129.641 20.3664ZM129.641 28.7403C127.887 28.7403 126.568 27.3799 126.568 25.6271C126.568 23.8732 127.887 22.5139 129.641 22.5139C131.375 22.5139 132.713 23.8732 132.713 25.6271C132.713 27.3805 131.375 28.7403 129.641 28.7403ZM136.511 30.5925H138.876V16.8592H136.511V30.5925ZM147.402 26.4347C147.402 28.0104 146.476 28.6815 145.235 28.6815C143.993 28.6815 143.068 28.0104 143.068 26.4558V20.6623H140.684V26.6522C140.684 29.4896 142.752 30.8489 145.215 30.8489C147.697 30.8489 149.785 29.4696 149.785 26.5929V20.6623H147.402V26.4347ZM158.729 27.4171L157.238 25.3318L159.085 22.8164L160.665 20.6623H158.085L155.937 23.6373L153.77 20.6623H151.21L152.678 22.671L154.637 25.3512L152.583 28.2113L150.874 30.5925H153.415L155.936 27.0852L158.458 30.5925H161L158.729 27.4171Z" fill="white"/>
</svg>
