<svg width="200" height="47" viewBox="0 0 200 47" fill="none" xmlns="http://www.w3.org/2000/svg">
<path d="M127.806 34.8736C131.617 30.2151 131.496 25.5768 129.6 21.5637C125.386 25.8995 126.535 32.8771 127.806 34.8736ZM88.0773 32.0301V22.4107C86.4842 22.4107 84.2658 24.629 84.2658 27.17C84.2658 29.711 86.0607 32.0301 88.0773 32.0301ZM77.51 32.1309C77.51 32.0301 77.4092 31.9293 77.4092 31.8083C75.09 20.4949 85.012 17.9741 88.0773 18.0749H95.4785C95.4785 18.0749 95.4785 28.6421 95.4785 31.5058C95.4785 34.4702 97.3742 33.5224 98.8665 32.1309C98.8665 32.1309 98.8665 22.935 98.8665 18.2967C98.8665 13.4366 94.8533 13.8601 94.8533 13.8601L100.339 9H100.964C104.453 9 106.046 12.0653 106.147 15.1306V23.056C106.147 23.056 112.378 17.5707 112.6 17.3489C115.444 17.5506 116.512 19.7891 116.613 21.4629V32.2318C116.613 34.8736 118.509 34.0266 119.779 32.7561C117.339 22.6124 123.268 18.7001 126.233 17.2279L136.8 20.2932C137.002 20.8175 137.324 21.5637 137.647 22.4107C137.647 22.4107 142.729 17.9741 143.677 17.1271C146.117 17.5506 147.589 19.0227 147.69 20.8175V31.9091C147.69 35.0752 149.283 34.0266 150.433 32.9578V17.9539H157.733C157.733 17.9539 157.733 29.1463 157.733 30.9613C157.733 34.6517 161 34.1274 161 34.1274C159.73 35.3979 157.733 37.1927 156.765 38.0397C153.075 37.838 151.38 36.1441 150.533 34.4501C149.364 35.4987 147.791 36.991 146.621 38.1405C140.712 39.0884 140.168 33.3813 140.168 33.3813V24.6088C140.168 23.2375 138.897 23.4392 137.849 23.4392C139.321 33.4821 133.311 37.9187 128.975 38.2414C124.539 38.564 121.796 36.0231 120.304 34.0064C118.287 35.9021 115.766 38.2414 115.766 38.2414C111.753 38.6649 109.111 36.6482 109.111 33.1594V26.8272C109.111 24.7097 107.417 24.7097 105.945 24.7097V37.8179H98.6447V33.7039C98.6447 33.7039 97.3742 34.8736 94.1072 37.9389C90.8402 38.9875 88.9243 36.4667 88.0773 34.9744C87.4522 35.4987 87.0287 36.0231 84.9112 37.9389C81.0997 37.9389 78.7805 34.7727 77.9335 33.4014V33.3006L72.6498 37.959C72.6498 37.959 66.0957 39.9757 66.0957 31.9293V26.5448V18.4177C66.0957 16.4011 64.6235 16.0986 63.1312 16.0986V37.8582H55.1048C55.1048 37.8582 55.1048 21.3822 55.1048 18.5186C55.1048 16.5019 53.8343 16.0784 52.1403 16.0784V37.959H44.0132C44.114 35.2164 44.0132 21.362 44.0132 19.7891C44.0132 14.9289 40 15.3524 40 15.3524L45.4853 10.4923H47.6028C48.8733 10.4923 52.0395 11.4401 52.0395 14.3038L56.3753 10.4923H58.5937C60.3885 10.4923 63.0303 11.662 63.0303 14.4046L67.467 10.4923H69.5845C71.1777 10.4923 74.0212 11.4401 74.0212 14.4046L74.122 26.7666C74.0212 29.5093 74.122 27.1901 74.122 28.8841C74.122 33.5426 76.2395 33.1191 77.2882 32.5746C77.51 32.3528 77.51 32.2318 77.51 32.1309Z" fill="white"/>
</svg>
