<svg width="200" height="47" viewBox="0 0 200 47" fill="none" xmlns="http://www.w3.org/2000/svg">
<path d="M85.0516 30.9393C83.1705 32.1621 81.1012 32.7734 78.9379 32.7734C75.4578 32.7734 73.4355 30.4691 73.4355 27.3652C73.4355 23.2267 77.2449 21.0164 85.0987 20.1229V19.0882C85.0987 17.7244 84.064 16.972 82.1829 16.972C80.3017 16.972 78.7498 17.7244 77.6681 19.0882L74.3761 17.2071C76.1162 14.8087 78.7498 13.5859 82.2769 13.5859C87.1209 13.5859 89.8486 15.7022 89.8486 19.0882C89.8486 19.0882 89.8486 32.4913 89.8486 32.5383H85.5219L85.0516 30.9393ZM78.1854 27.036C78.1854 28.2587 78.9849 29.4344 80.3958 29.4344C81.9477 29.4344 83.4056 28.7761 84.9105 27.4593V23.0856C80.3488 23.697 78.1854 24.8257 78.1854 27.036Z" fill="white"/>
<path d="M93.6523 14.5254L97.6968 13.961L98.1201 16.1714C100.424 14.5254 102.212 13.6318 104.516 13.6318C108.325 13.6318 110.301 15.6541 110.301 19.6514V32.5842H105.41V20.498C105.41 18.2406 104.798 17.206 103.058 17.206C101.6 17.206 100.142 17.8644 98.4963 19.2752V32.5842H93.6523V14.5254Z" fill="white"/>
<path d="M142.659 32.9145C137.204 32.9145 133.912 29.3874 133.912 23.2737C133.912 17.113 137.204 13.5859 142.565 13.5859C147.927 13.5859 151.125 16.972 151.125 23.0386C151.125 23.3678 151.078 23.697 151.078 23.9792H138.709C138.756 27.5063 140.214 29.2463 143.083 29.2463C144.917 29.2463 146.14 28.4939 147.268 26.8479L150.842 28.8231C149.29 31.5037 146.469 32.9145 142.659 32.9145ZM146.328 20.8283C146.328 18.3358 144.917 16.8779 142.612 16.8779C140.402 16.8779 139.038 18.2888 138.85 20.8283H146.328Z" fill="white"/>
<path d="M49.1706 33.1028C44.3266 33.1028 40 30.046 40 23.3209C40 16.5959 44.3737 13.5391 49.1706 13.5391C54.0146 13.5391 58.3412 16.5959 58.3412 23.3209C58.3412 30.046 54.0146 33.1028 49.1706 33.1028ZM49.1706 17.6305C45.5494 17.6305 44.844 20.9225 44.844 23.2739C44.844 25.6723 45.5024 28.9173 49.1706 28.9173C52.8388 28.9173 53.4972 25.6253 53.4972 23.2739C53.4972 20.9225 52.7918 17.6305 49.1706 17.6305Z" fill="white"/>
<path d="M61.6758 14.0092H66.3316V16.1725C67.2252 14.9968 69.3885 13.5859 71.4578 13.5859C71.6459 13.5859 71.881 13.5859 72.0691 13.633V18.1947C71.9751 18.1947 71.928 18.1947 71.834 18.1947C69.7177 18.1947 67.3663 18.5239 66.6608 20.1699V32.4913H61.6758V14.0092Z" fill="white"/>
<path d="M122.253 28.5846C125.968 28.5375 126.25 24.7753 126.25 22.3298C126.25 19.414 124.839 17.0626 122.206 17.0626C120.465 17.0626 118.49 18.3324 118.49 22.5179C118.537 24.8223 118.678 28.5846 122.253 28.5846ZM131 13.9588V31.5473C131 34.6512 130.765 39.7302 121.923 39.8243C118.255 39.8243 114.916 38.3664 114.211 35.2155L119.008 34.4631C119.196 35.3566 119.76 36.2972 122.488 36.2972C125.027 36.2972 126.25 35.0745 126.25 32.2057V30.0424L126.203 29.9954C125.451 31.3592 124.228 32.676 121.406 32.676C117.079 32.676 113.693 29.6662 113.693 23.4114C113.693 17.2037 117.221 13.7236 121.171 13.7236C124.886 13.7236 126.25 15.4166 126.579 16.3102H126.532L126.955 14.0999H131V13.9588Z" fill="white"/>
<path d="M153.004 7.79948H151.076V13.1137H150.041V7.79948H148.113V7H152.957V7.79948H153.004ZM160.999 13.1137H159.965V7.98759H159.917L157.895 13.1137H157.237L155.215 7.98759H155.168V13.1137H154.133V7H155.685L157.519 11.6558L159.306 7H160.858V13.1137H160.999Z" fill="white"/>
</svg>
