<svg width="200" height="47" viewBox="0 0 200 47" fill="none" xmlns="http://www.w3.org/2000/svg">
<path fill-rule="evenodd" clip-rule="evenodd" d="M63.0227 21.5147C62.1815 22.3818 61.6818 23.4282 61.3381 24.6048C61.5319 24.5919 61.5728 24.492 61.6049 24.4087C61.928 23.6547 62.4708 23.0767 63.0908 22.5652C64.0961 21.7363 65.2353 21.1309 66.4273 20.6234C69.9924 19.1053 73.7408 18.2365 77.5435 17.6118C82.6408 16.7755 87.7713 16.1989 92.9019 15.6223C94.3665 15.4578 95.8312 15.2932 97.2951 15.1225C97.8084 15.062 98.0134 15.1874 98.2251 15.6499C99.5776 18.6139 102.742 19.603 105.554 17.9638C107.04 17.0963 108.078 15.8228 108.777 14.2689C108.935 13.9184 109.135 13.7687 109.516 13.7251C111.332 13.516 113.148 13.2931 114.959 13.0468C120.918 12.2364 126.86 11.3352 132.711 9.91427C135.407 9.2597 138.061 8.48499 140.468 7.05975C142.109 6.08819 143.568 4.91842 144.4 3.13008C144.583 2.73768 144.725 2.33335 144.721 1.88372C144.529 1.89041 144.485 1.98887 144.445 2.07773L144.444 2.0804C144.082 2.89472 143.469 3.4958 142.785 4.03753C141.819 4.80308 140.736 5.36999 139.611 5.85435C135.706 7.53393 131.584 8.43783 127.431 9.21683C122.101 10.2168 116.719 10.8515 111.332 11.4436L110.901 11.4913C110.48 11.5379 110.058 11.5846 109.632 11.6312C109.789 9.41868 109.687 8.41831 109.178 7.08102C107.796 3.44907 104.016 2.32258 100.943 4.69765C98.4208 6.64784 97.4129 9.35177 97.4638 12.4753C97.4705 12.9338 97.3304 12.9941 96.9578 13.0347C90.8159 13.7032 84.6828 14.4333 78.6021 15.5466C74.8422 16.2357 71.1371 17.1279 67.6079 18.6346C65.931 19.351 64.3162 20.1815 63.0227 21.5147ZM100.846 10.1388C100.638 10.5191 100.385 10.8331 99.9686 10.9876C100.45 9.74571 100.999 8.50668 101.981 7.60579C102.806 6.84954 103.918 7.38825 104.349 8.6356C104.381 8.61127 104.412 8.58762 104.443 8.56425C104.507 8.51552 104.57 8.46802 104.631 8.41823C105.072 8.05999 105.552 7.92705 106.096 8.16447C106.705 8.43018 107.102 8.86171 107.106 9.55414C107.109 10.3099 107.1 11.0663 107.09 11.8362L107.09 11.8387L107.09 11.8461C107.086 12.1741 107.082 12.5046 107.079 12.8385C106.713 12.6776 106.634 12.4057 106.636 12.1005C106.639 11.3221 106.642 10.5427 106.666 9.76463C106.684 9.1912 106.534 8.74138 105.966 8.48243C105.384 8.21651 104.916 8.39946 104.48 8.7875C104.406 8.8531 104.332 8.91968 104.25 8.99353C103.995 8.04256 103.692 7.73299 102.987 7.68443C102.542 7.65345 102.191 7.813 101.963 8.20348C101.891 8.32518 101.82 8.44675 101.748 8.5683L101.746 8.57267L101.746 8.57279L101.746 8.57291L101.746 8.57303L101.746 8.57315L101.746 8.57326L101.745 8.57338L101.745 8.5735L101.745 8.57362L101.745 8.57374L101.745 8.57385L101.745 8.57397L101.745 8.57409C101.44 9.09306 101.135 9.61175 100.846 10.1388ZM99.9686 10.9876L99.9387 10.8875C99.942 10.8884 99.9463 10.8892 99.9504 10.89L99.9505 10.89C99.9554 10.8909 99.9602 10.8918 99.9632 10.8928C99.9651 10.8935 99.9662 10.8942 99.9663 10.895C99.9684 10.9262 99.9685 10.9569 99.9686 10.9876ZM103.037 9.52136L103.037 9.52138C102.994 9.52838 102.944 9.53667 102.882 9.54753C103.331 9.03373 103.332 9.02684 103.174 8.61596C103.732 8.67123 103.944 8.94234 104.023 9.73976C104.398 9.3193 104.782 8.95396 105.467 9.18432C105.085 9.41156 105.078 9.71738 105.201 10.0469C105.049 10.1134 104.985 10.0276 104.926 9.94748C104.907 9.92164 104.889 9.8964 104.868 9.87703L104.837 9.8495C104.731 9.75152 104.626 9.65455 104.473 9.72231C104.332 9.7836 104.318 9.94668 104.312 10.0763C104.293 10.4772 104.387 10.8759 104.605 11.1931C104.81 11.4884 104.88 11.3357 104.952 11.1789C104.984 11.1089 105.016 11.0382 105.061 11.006C105.302 11.1306 105.393 11.3679 105.371 11.5996C105.332 11.9909 105.512 12.1763 105.839 12.3274L105.863 12.3382C106.091 12.4432 106.339 12.5568 106.363 12.8872C106.373 13.0282 106.479 13.0641 106.593 13.1028C106.671 13.1292 106.753 13.1569 106.811 13.2202C106.68 13.286 106.553 13.274 106.427 13.2621C106.396 13.2591 106.364 13.2562 106.333 13.2544C106.293 13.2523 106.248 13.235 106.202 13.2176C106.075 13.1692 105.944 13.1195 105.917 13.3889C105.916 13.4003 105.786 13.4274 105.741 13.4025C105.176 13.0948 104.572 12.9329 103.936 12.8607C103.831 12.8486 103.73 12.7955 103.621 12.7378C103.568 12.7098 103.512 12.6807 103.454 12.6547C103.625 12.4319 103.837 12.4316 104.046 12.4312L104.046 12.4312L104.046 12.4312L104.046 12.4312C104.122 12.4311 104.198 12.431 104.271 12.4199C104.204 12.2909 104.087 12.2695 103.972 12.2485C103.873 12.2304 103.776 12.2126 103.713 12.1268C103.628 12.0091 103.61 11.8733 103.591 11.7291C103.58 11.6462 103.569 11.5605 103.544 11.4738C103.343 11.9025 103.053 12.1019 102.571 11.8991C102.625 11.9645 102.69 12.0181 102.755 12.0725C102.908 12.1982 103.064 12.3279 103.103 12.6168C102.172 12.2814 101.267 12.0581 100.34 11.9216L100.372 11.7928C100.412 11.7898 100.452 11.7865 100.497 11.7829L100.517 11.7813L100.518 11.7812L100.519 11.7811L100.523 11.7808C100.573 11.7767 100.629 11.7721 100.697 11.7669C100.601 11.7134 100.504 11.6762 100.41 11.6399C100.232 11.5718 100.063 11.507 99.93 11.344C99.9901 11.3425 100.051 11.3476 100.11 11.3526C100.309 11.3694 100.496 11.3852 100.614 11.1523C100.646 11.0901 100.804 11.0546 100.895 11.0666C101.442 11.138 101.927 11.1047 102.184 10.5021C102.234 10.3865 102.393 10.2964 102.531 10.3286C102.661 10.3584 102.633 10.4351 102.605 10.5125C102.591 10.5501 102.577 10.5879 102.582 10.6205C102.614 10.8746 102.765 10.8289 102.902 10.7307C103.178 10.534 103.433 10.3114 103.625 10.0229C103.734 9.85699 103.816 9.671 103.698 9.5045C103.599 9.36619 103.453 9.41314 103.315 9.45794C103.285 9.46756 103.256 9.47709 103.227 9.48465C103.175 9.49858 103.121 9.50745 103.037 9.52136ZM102.616 14.2026C102.865 13.9328 103.183 13.94 103.51 14.0223C103.84 14.1076 104.117 14.26 104.189 14.6253C104.256 14.9683 104.179 15.2752 103.845 15.4444C103.678 15.5287 103.729 15.5981 103.784 15.6721C103.801 15.6954 103.819 15.7191 103.83 15.7439C104.059 16.2532 103.879 16.8313 103.425 17.0539C102.94 17.2912 102.207 17.0384 101.983 16.5569C101.807 16.1771 101.925 15.7396 102.303 15.5019L102.314 15.4953C102.47 15.3972 102.546 15.3492 102.442 15.1378C102.277 14.8033 102.367 14.4724 102.616 14.2026ZM106.708 14.2202L99.2978 12.2086C99.5115 11.9813 99.7268 12.0427 99.9311 12.1009L99.9789 12.1144C100.229 12.1844 100.478 12.2622 100.727 12.3399C101.224 12.4954 101.721 12.6508 102.23 12.7445C102.944 12.8755 103.631 13.094 104.319 13.3124C104.942 13.5104 105.565 13.7084 106.207 13.8408L106.251 13.8495C106.444 13.8873 106.653 13.9282 106.708 14.2202ZM100.627 13.8082C100.577 13.8077 100.524 13.8072 100.467 13.8055C100.599 13.3959 100.804 13.2996 101.141 13.4469C101.268 13.5023 101.423 13.5267 101.575 13.5505C101.839 13.5921 102.093 13.6321 102.172 13.8315C102.228 13.9734 102.057 14.2032 101.883 14.4362C101.8 14.5474 101.717 14.6594 101.657 14.7628C101.551 14.9475 101.43 15.1234 101.31 15.2994L101.31 15.2995L101.31 15.2995L101.31 15.2996L101.31 15.2996L101.31 15.2997L101.31 15.2997L101.31 15.2998L101.31 15.2998L101.31 15.2999L101.309 15.3L101.309 15.3L101.309 15.3001L101.309 15.3001C101.097 15.61 100.885 15.9202 100.749 16.2788C100.664 16.5015 100.532 16.4283 100.405 16.3578C100.351 16.3275 100.297 16.2976 100.248 16.292C100.017 16.2664 100.126 16.1034 100.199 15.9943C100.449 15.6198 100.703 15.2472 100.956 14.8745C101.045 14.7441 101.134 14.6136 101.222 14.483C101.529 14.0313 101.456 13.8815 100.896 13.8193C100.81 13.8099 100.724 13.8091 100.627 13.8082ZM104.911 14.7611C104.855 14.7563 104.793 14.751 104.723 14.7427C105.081 14.4519 105.653 14.5228 105.942 14.837C106.205 15.123 106.168 15.3814 105.846 15.5953C105.76 15.6525 105.742 15.6868 105.83 15.7739C106.048 15.9917 106.078 16.2495 105.908 16.51C105.718 16.8019 105.414 16.8612 105.103 16.82C104.903 16.7939 104.708 16.73 104.514 16.6664C104.466 16.6509 104.419 16.6354 104.371 16.6204C104.247 16.5813 104.252 16.4708 104.284 16.3694C104.326 16.2365 104.389 16.2769 104.45 16.3165C104.471 16.3299 104.492 16.3433 104.512 16.3497C104.548 16.3616 104.584 16.3755 104.62 16.3894C104.679 16.4122 104.738 16.435 104.799 16.4488C105.035 16.5013 105.276 16.5445 105.398 16.25C105.509 15.9838 105.344 15.8705 105.174 15.7539C105.148 15.7356 105.121 15.7173 105.095 15.6983C105.06 15.672 105.008 15.6618 104.957 15.6516C104.852 15.631 104.748 15.6105 104.788 15.4562C104.822 15.3224 104.938 15.3483 105.045 15.372C105.08 15.3798 105.114 15.3874 105.143 15.3888C105.347 15.3986 105.484 15.3343 105.507 15.1323C105.532 14.9159 105.354 14.8475 105.191 14.8011C105.107 14.7778 105.02 14.7703 104.911 14.7611ZM106.229 11.3918C106.229 11.6793 106.229 11.972 106.232 12.2721C105.91 12.0082 105.809 11.7884 105.816 11.4858C105.83 10.8605 105.818 10.2323 105.795 9.60654C105.78 9.1869 105.667 8.81777 105.079 8.79359C105.676 8.58131 106.164 8.86909 106.195 9.45589C106.228 10.0902 106.229 10.7267 106.229 11.3914L106.229 11.3915L106.229 11.3915L106.229 11.3917L106.229 11.3918L106.229 11.3918ZM102.424 8.32339C102.7 7.92247 103.199 7.96296 103.745 8.42394C103.156 8.16161 102.849 8.36808 102.612 8.76037C102.494 8.95408 102.375 9.14681 102.256 9.3395L102.256 9.33967L102.256 9.33984L102.256 9.34001L102.256 9.34019L102.256 9.34036L102.256 9.34053L102.256 9.34071L102.256 9.34088L102.256 9.34105L102.255 9.34122L102.255 9.3414L102.255 9.34157L102.255 9.34178L102.255 9.34199L102.255 9.34219L102.255 9.3424L102.255 9.34261L102.254 9.34282L102.254 9.34303L102.254 9.34324L102.254 9.34345L102.254 9.34365L102.254 9.34386L102.254 9.34407C102.046 9.68092 101.838 10.0176 101.639 10.3592C101.491 10.612 101.305 10.7741 100.906 10.7854C101.059 10.5349 101.206 10.2867 101.352 10.0412L101.353 10.0394L101.354 10.0377L101.355 10.0364L101.356 10.035L101.357 10.0337L101.358 10.0313L101.358 10.0312C101.708 9.44254 102.048 8.87025 102.424 8.32339ZM100.087 13.202L99.5177 15.2976C99.4978 15.2922 99.4736 15.2851 99.4464 15.2771C99.3755 15.2561 99.2836 15.229 99.1895 15.2096C99.0063 15.1715 98.9804 15.1423 99.063 14.9278C99.0875 14.8638 99.1132 14.7995 99.1391 14.735L99.1393 14.7345C99.2938 14.3495 99.4524 13.954 99.3763 13.5241C99.3552 13.4066 99.3892 13.4016 99.4414 13.3939C99.4549 13.3919 99.4695 13.3898 99.4848 13.3855C99.6054 13.3519 99.7251 13.3145 99.8709 13.269L99.8711 13.2689L99.8713 13.2688L99.8714 13.2688C99.937 13.2483 100.008 13.2262 100.087 13.202ZM104.539 5.29739C104.8 5.36402 105.061 5.51085 105.068 5.9125C104.457 5.36381 104.058 5.43847 103.62 6.09358C103.565 6.17577 103.517 6.26531 103.469 6.3557L103.469 6.35575L103.469 6.35579L103.469 6.35582L103.469 6.35586C103.296 6.67802 103.117 7.01106 102.611 7.06197C102.707 6.908 102.799 6.75698 102.89 6.60853L102.89 6.60847C103.096 6.27305 103.294 5.95074 103.504 5.63701C103.753 5.26673 104.145 5.19762 104.539 5.29739ZM106.276 7.0544C106.248 6.0065 106.197 5.95152 105.179 5.83675C105.826 5.4225 106.572 5.78775 106.62 6.56103C106.641 6.90721 106.64 7.25467 106.638 7.60888C106.637 7.77176 106.637 7.93607 106.638 8.10234C106.376 7.9983 106.3 7.79603 106.283 7.563C106.276 7.46071 106.276 7.35821 106.277 7.25573L106.277 7.25568L106.277 7.25564L106.277 7.25559L106.277 7.25554L106.277 7.2555L106.277 7.25545L106.277 7.2554L106.277 7.25535L106.277 7.25531L106.277 7.25526L106.277 7.25521L106.277 7.255L106.277 7.25486L106.277 7.25473C106.277 7.18792 106.277 7.12112 106.276 7.0544ZM104.166 6.64032C104.02 6.90369 103.873 7.17025 103.488 7.14667C104.038 6.13837 104.328 5.61124 104.833 6.15308C104.456 6.1173 104.312 6.37721 104.166 6.64032ZM105.231 6.26233C105.896 6.07593 105.951 6.59933 105.863 7.79369C105.531 7.62465 105.539 7.32518 105.548 7.0264C105.557 6.72704 105.566 6.42838 105.231 6.26233ZM105.046 7.59409C104.753 7.89515 104.431 7.68074 104.242 7.33238C104.375 7.20908 104.51 7.08647 104.651 6.95792L104.858 6.76897C104.885 6.84221 104.925 6.9198 104.965 6.99811L104.965 6.99814C105.077 7.218 105.192 7.44353 105.046 7.59409ZM104.714 4.87536C104.834 4.66729 104.954 4.45911 105.297 4.52717C105.148 4.57025 105.06 4.68954 104.972 4.80876C104.868 4.95021 104.763 5.09155 104.557 5.1054C104.618 5.04019 104.666 4.95778 104.714 4.87536ZM105.788 5.04745C105.775 4.894 105.762 4.74534 105.645 4.63639C105.996 4.75028 105.992 5.00069 105.987 5.27816C105.986 5.36457 105.984 5.4536 105.993 5.54196C105.82 5.40604 105.804 5.22359 105.788 5.04745ZM58.2491 44.134C57.9971 44.5636 57.7529 45.0038 57.7755 45.5396C57.8027 45.537 57.8255 45.5365 57.8444 45.5361C57.8752 45.5354 57.8956 45.535 57.9073 45.5257C57.9465 45.4941 57.981 45.4527 58.0037 45.4081C58.47 44.5006 59.2202 43.8752 60.066 43.3499C61.772 42.2883 63.6571 41.6697 65.5814 41.16C70.1313 39.9558 74.7846 39.376 79.4573 38.9547C85.3522 38.4231 91.26 38.084 97.1678 37.7449C100.165 37.5728 103.163 37.4007 106.158 37.2035C111.851 36.8288 117.542 36.3963 123.166 35.3735C126.126 34.8351 129.025 34.072 131.75 32.751C133.499 31.9019 134.916 30.7248 135.64 28.8531C135.651 28.8232 135.664 28.7937 135.678 28.7642C135.729 28.65 135.781 28.5333 135.747 28.3738C135.717 28.3903 135.689 28.4023 135.666 28.4124C135.625 28.4305 135.597 28.4428 135.585 28.4641C134.984 29.6395 133.962 30.3497 132.841 30.9505C131.152 31.855 129.337 32.4069 127.487 32.8574C123.245 33.8903 118.921 34.309 114.578 34.6388C110.464 34.9516 106.346 35.2021 102.229 35.4526L102.228 35.4526C98.811 35.6605 95.3936 35.8685 91.9784 36.112C84.5472 36.6419 77.12 37.2153 69.7775 38.556C66.9685 39.0687 64.1874 39.6852 61.6529 41.0833C60.2862 41.8374 59.0561 42.7543 58.2491 44.134ZM109.973 29.3521L109.973 29.3521L109.973 29.3518C110.049 29.039 110.124 28.7277 110.207 28.4188C110.695 26.6034 111.162 24.7821 111.628 22.9609L111.628 22.9608L111.628 22.9608L111.628 22.9608L111.628 22.9607L111.628 22.9607L111.628 22.9607L111.628 22.9606L111.628 22.9606L111.628 22.9606L111.628 22.9605L111.628 22.9605C111.835 22.1512 112.043 21.3418 112.252 20.533C112.38 20.038 112.506 19.5415 112.318 19.0367C112.26 18.8803 112.289 18.8366 112.454 18.8127C112.973 18.7409 113.49 18.654 114.007 18.5649C114.266 18.5204 114.282 18.6569 114.3 18.8025C114.311 18.8982 114.323 18.9979 114.405 19.0523C114.704 18.696 115.028 18.345 115.431 18.0749C117.016 17.0111 118.793 17.7028 119.181 19.5686C119.502 21.116 119.153 22.6039 118.653 24.0585C118.271 25.1707 117.744 26.2119 116.921 27.0766L116.884 27.1163C116.791 27.2134 116.698 27.3111 116.599 27.4004C115.21 28.6369 113.892 28.6377 112.383 27.3907C112.322 27.6175 112.259 27.8431 112.196 28.068L112.196 28.0693L112.196 28.0694L112.196 28.0695L112.196 28.0696L112.196 28.0697L112.196 28.0698L112.196 28.0699L112.196 28.07L112.196 28.0702L112.196 28.0703L112.195 28.0704L112.195 28.0705C112.049 28.5939 111.904 29.114 111.78 29.6386C111.733 29.8356 111.671 30.0298 111.609 30.224C111.471 30.6592 111.333 31.0949 111.359 31.5642C111.369 31.7306 111.269 31.7343 111.178 31.7376C111.159 31.7383 111.14 31.739 111.123 31.7412C110.652 31.7958 110.18 31.8459 109.696 31.8973C109.525 31.9156 109.352 31.934 109.176 31.9528C109.552 31.0842 109.764 30.2122 109.973 29.3524L109.973 29.3524L109.973 29.3524L109.973 29.3523L109.973 29.3523L109.973 29.3523L109.973 29.3522L109.973 29.3522L109.973 29.3522L109.973 29.3521L109.973 29.3521ZM116.643 23.5055C116.926 22.4203 117.142 21.4426 117.024 20.4315C116.974 20.0057 116.868 19.5677 116.41 19.3946C115.948 19.2197 115.544 19.4188 115.192 19.7123C114.537 20.2578 114.078 20.9526 113.833 21.7574C113.6 22.5243 113.394 23.2992 113.189 24.0743L113.189 24.0744L113.189 24.0745L113.189 24.0746L113.189 24.0746L113.189 24.0747L113.189 24.0748L113.189 24.0748L113.188 24.0749L113.188 24.075L113.188 24.0751L113.188 24.0751L113.188 24.0761C113.076 24.4977 112.965 24.9193 112.848 25.3398C112.782 25.5798 112.789 25.8047 112.87 26.036C113.266 27.1639 114.434 27.3267 115.27 26.3494C116.004 25.4943 116.379 24.4584 116.643 23.5055ZM101.051 32.7108L101.05 32.7112L101.051 32.7105L101.051 32.7108ZM101.373 32.8115C101.253 32.8244 101.134 32.8238 101.051 32.7108C101.41 32.62 101.492 32.306 101.566 32.0265L101.58 31.9743C102.259 29.4134 102.926 26.8491 103.593 24.2847L103.926 23.0031C104.001 22.7153 104.072 22.4263 104.142 22.1373L104.142 22.1371L104.142 22.1369L104.142 22.1368L104.142 22.1366L104.143 22.1365L104.143 22.1363L104.143 22.1361L104.143 22.136L104.143 22.1358L104.143 22.1356C104.209 21.8648 104.275 21.5938 104.345 21.3235C104.441 20.9531 104.417 20.5945 104.236 20.2007C104.607 20.1431 104.968 20.0868 105.326 20.0311L105.331 20.0302L106.006 19.9251C106.013 19.9239 106.022 19.9221 106.03 19.9204C106.061 19.9139 106.097 19.9065 106.105 19.9169C106.388 20.311 106.55 20.0907 106.693 19.8974C106.736 19.8385 106.778 19.7822 106.82 19.7464C108.258 18.5391 110.028 19.1167 110.46 20.9542C110.786 22.3465 110.492 23.6877 110.062 25.0017C109.735 26.0031 109.308 26.9678 108.642 27.8001C108.422 28.0763 108.175 28.3405 107.905 28.5685C106.756 29.537 105.57 29.5342 104.354 28.5182C104.253 28.9926 104.122 29.455 103.991 29.9163L103.991 29.9163L103.991 29.9164L103.991 29.9165L103.991 29.9166L103.991 29.9167L103.991 29.9168L103.991 29.9169L103.991 29.917L103.991 29.9171L103.991 29.9171C103.745 30.7829 103.501 31.6446 103.457 32.5749C102.849 32.6446 102.111 32.7286 101.373 32.8115ZM105.214 25.3923C105.267 25.1924 105.32 24.9926 105.374 24.7929C105.481 24.4529 105.556 24.1026 105.63 23.7523L105.63 23.7523L105.63 23.7522L105.63 23.7522L105.63 23.7521L105.63 23.7521L105.63 23.752L105.63 23.752L105.63 23.7519L105.63 23.7519L105.63 23.7518C105.779 23.0582 105.927 22.3644 106.321 21.7498C106.541 21.4057 106.776 21.0763 107.143 20.8703C107.689 20.5639 108.191 20.7349 108.414 21.3211C108.658 21.9614 108.588 22.6222 108.485 23.2783C108.272 24.632 107.847 25.9114 107.102 27.072C106.9 27.3873 106.669 27.6767 106.361 27.8975C105.988 28.1643 105.591 28.1994 105.23 27.9184C104.88 27.6458 104.681 27.2883 104.824 26.8057C104.962 26.3366 105.088 25.8645 105.214 25.3923ZM95.5197 21.4309L95.5198 21.4309C95.9697 21.3556 96.4148 21.2811 96.896 21.2013C95.9624 22.0664 95.5425 23.1482 95.1278 24.2165C94.994 24.5611 94.8608 24.9043 94.7111 25.2384C94.0046 26.8144 93.3455 28.4121 92.6868 30.0091L92.4881 30.4906C92.3617 30.7967 92.1982 30.912 91.8685 30.9462L91.8209 30.9511C91.2349 31.0121 90.9433 31.0424 90.8016 30.911C90.6613 30.7809 90.668 30.4921 90.6813 29.9173L90.6819 29.8914C90.7046 28.9517 90.7201 28.0117 90.7356 27.0718L90.7357 27.0705L90.7357 27.0703L90.7357 27.0702C90.7422 26.672 90.7488 26.2737 90.7559 25.8755C90.757 25.8092 90.7556 25.7443 90.6822 25.6525C90.5914 25.8661 90.5002 26.0796 90.409 26.293L90.4089 26.2931L90.4089 26.2932L90.4088 26.2933L90.4088 26.2935L90.4087 26.2936L90.4087 26.2937L90.4086 26.2938L90.4086 26.2939L90.4085 26.294C90.2085 26.7621 90.0084 27.2302 89.8133 27.7005C89.7381 27.8821 89.6627 28.0637 89.5873 28.2452C89.2135 29.1459 88.8398 30.0463 88.4859 30.9543C88.351 31.2993 88.1265 31.3748 87.7934 31.406L87.7547 31.4096C87.193 31.4625 86.9122 31.4889 86.775 31.3611C86.6377 31.2333 86.6442 30.9511 86.6571 30.3869L86.6572 30.3838C86.6727 29.7001 86.6887 29.0163 86.7046 28.3325L86.7047 28.3318L86.7047 28.3311L86.7047 28.3303L86.7047 28.3283L86.7048 28.3281L86.7048 28.3278L86.7048 28.3276L86.7048 28.3273L86.7048 28.3271L86.7048 28.3269L86.7048 28.3266L86.7048 28.3264C86.7394 26.8439 86.774 25.3612 86.8042 23.8787C86.8048 23.8459 86.8059 23.8129 86.807 23.7797C86.8161 23.4986 86.8255 23.2082 86.5854 22.9396C87.3765 22.8065 88.1055 22.684 88.9363 22.5447C88.5803 22.9524 88.5591 23.3696 88.5501 23.7922L88.5467 23.948C88.5192 25.2281 88.4916 26.5091 88.5593 27.8169C88.6717 27.5586 88.7846 27.3005 88.8976 27.0424C89.1043 26.5698 89.3111 26.0972 89.5144 25.6231L89.5724 25.4875C89.9807 24.5342 90.3892 23.5801 90.7819 22.6207C90.9102 22.3076 91.0926 22.1383 91.4437 22.1109C91.7104 22.0899 91.9753 22.0419 92.2525 21.9915L92.2526 21.9915L92.2531 21.9914L92.2537 21.9913C92.3748 21.9694 92.4982 21.947 92.6252 21.9262L92.5677 23.728C92.5275 24.9854 92.4876 26.234 92.4483 27.4821C92.4812 27.4932 92.5142 27.5043 92.5468 27.5163C92.6149 27.3636 92.6835 27.211 92.7522 27.0585L92.7523 27.0583C92.8914 26.7491 93.0306 26.4398 93.1646 26.1286L93.2917 25.8338L93.2917 25.8337L93.2917 25.8337L93.2918 25.8336L93.2918 25.8335L93.2918 25.8334L93.2918 25.8334L93.2919 25.8333L93.2919 25.8332L93.2919 25.8331C93.7467 24.7779 94.2013 23.7232 94.6464 22.6641L94.6671 22.6143C94.8013 22.2927 94.9419 21.9557 94.5635 21.5906C94.8912 21.536 95.2033 21.4838 95.513 21.432L95.5197 21.4309ZM125.852 24.4509C125.842 24.4477 125.832 24.4446 125.823 24.4408C125.246 25.3869 124.596 25.9813 123.798 26.2903C122.696 26.7185 121.993 26.2868 121.918 25.1094C121.864 24.2721 122.026 23.4575 122.225 22.6456C122.301 22.3343 122.438 22.2088 122.759 22.168C124.054 22.0013 125.347 21.8161 126.64 21.631L126.64 21.631L126.64 21.631L126.64 21.631L126.64 21.631L126.64 21.631L126.64 21.631L126.64 21.631L126.641 21.6309L127.28 21.5394C127.306 21.5357 127.333 21.5331 127.36 21.5305L127.36 21.5305C127.51 21.516 127.659 21.5015 127.716 21.2846C128.009 20.1609 128.24 19.0318 127.981 17.8714C127.759 16.8807 127.135 16.3127 126.137 16.1592C125.163 16.009 124.264 16.2578 123.497 16.8372C120.958 18.7553 119.729 21.3855 119.673 24.5106C119.636 26.5708 121.232 27.7931 123.279 27.4985C124.407 27.3353 125.331 26.7919 126.043 25.9225C126.126 25.8206 126.2 25.7329 126.264 25.6568L126.264 25.6567C126.495 25.381 126.601 25.2558 126.586 25.1464C126.574 25.0554 126.479 24.9754 126.305 24.8288L126.305 24.8287C126.201 24.7414 126.07 24.6304 125.911 24.4794C125.896 24.4651 125.874 24.458 125.852 24.4509ZM123.435 20.94C123.191 20.9754 122.943 21.0115 122.688 21.0479C123.019 20.053 123.355 19.1704 123.91 18.3862C123.997 18.2629 124.088 18.1385 124.193 18.0294C124.54 17.6649 124.93 17.2959 125.469 17.509C125.966 17.7046 125.938 18.1622 125.912 18.5854C125.909 18.6402 125.905 18.6945 125.903 18.7475C125.88 19.307 125.746 19.8531 125.606 20.3946C125.603 20.4068 125.6 20.4191 125.597 20.4312C125.57 20.5437 125.546 20.6479 125.373 20.6696C124.737 20.7511 124.103 20.8432 123.435 20.94ZM84.4831 31.7922C83.4419 31.9156 82.4008 32.039 81.3204 32.1666C81.3286 32.1366 81.334 32.1082 81.3386 32.0837C81.347 32.0397 81.353 32.0083 81.368 32.0029C81.9123 31.8091 82.1355 31.3569 82.2672 30.8523C82.6551 29.3598 83.0342 27.8657 83.4134 26.371L83.4136 26.3704L83.6046 25.6177C83.689 25.2833 83.7721 24.9305 83.4269 24.6908C83.0773 24.4479 82.7355 24.593 82.4361 24.8078C81.8715 25.2129 81.4421 25.7275 81.2597 26.415C80.8323 28.0246 80.4076 29.6359 79.9831 31.2463C79.8813 31.6332 79.8298 32.002 80.3609 32.18C79.5415 32.3854 78.7113 32.4534 77.8624 32.5229L77.8618 32.523C77.6496 32.5404 77.4362 32.5578 77.2215 32.5776C78.0234 32.2039 78.1633 31.4964 78.3003 30.8037C78.3346 30.6305 78.3686 30.4583 78.4128 30.2925C79.0192 28.0215 79.6038 25.7451 80.1885 23.4685L80.1886 23.4681L80.1895 23.4647L80.1904 23.4613L80.1912 23.4579L80.1921 23.4546L80.193 23.4512L80.1938 23.4478L80.1947 23.4445C80.4067 22.6188 80.6188 21.7932 80.8319 20.9677C80.913 20.6535 80.9546 20.3444 80.6519 20.0338L83.0282 19.6543L81.8761 23.8988C82.0808 23.8851 82.1749 23.7965 82.2591 23.7173C82.2829 23.6949 82.306 23.6732 82.3305 23.6542C82.827 23.2666 83.3828 23.0421 84.015 23.0149C85.1589 22.9649 85.8226 23.6557 85.6645 24.7833C85.5711 25.4506 85.3849 26.0966 85.1986 26.7428C85.0929 27.1098 84.9871 27.4768 84.8982 27.8478C84.7398 28.5082 84.5622 29.1638 84.3845 29.8196C84.3 30.1319 84.2154 30.4443 84.1328 30.7571C84.0276 31.1526 83.9954 31.5245 84.4831 31.7922ZM66.2071 34.6065C65.4295 34.6238 64.7063 34.4212 63.9863 34.0312C63.9643 34.15 63.9443 34.2662 63.9246 34.3805C63.8852 34.6088 63.8473 34.8292 63.7974 35.0468C63.743 35.2783 63.8019 35.3652 64.0438 35.4245C65.4293 35.7657 66.8082 35.7498 68.1588 35.3044C70.6196 34.4932 71.8518 31.9093 70.9246 29.4975C70.7428 29.0244 70.5081 28.5713 70.2734 28.118L70.2733 28.118C70.156 27.8914 70.0386 27.6649 69.9278 27.4358C69.8264 27.2266 69.7187 27.0204 69.6109 26.8141C69.3103 26.2385 69.0097 25.6631 68.8477 25.0268C68.461 23.5103 69.3636 22.2538 70.9122 22.1307C71.4646 22.0861 71.9885 22.2051 72.5175 22.3402C72.61 22.3639 72.7068 22.4173 72.8018 22.4698C72.9797 22.5681 73.1514 22.663 73.2774 22.5518C73.4025 22.4411 73.4446 22.241 73.4875 22.0367C73.5114 21.923 73.5356 21.8079 73.5746 21.7062C73.6799 21.4313 73.5987 21.3173 73.3168 21.2535C71.8203 20.916 70.3561 20.9267 68.9444 21.605C67.0172 22.5305 66.2002 24.4731 66.8808 26.4998C67.0473 26.995 67.2947 27.4505 67.5423 27.9065L67.5423 27.9065C67.6106 28.0322 67.6789 28.1579 67.7456 28.2846C67.8268 28.439 67.9102 28.5926 67.9936 28.7462L67.9936 28.7463C68.4118 29.5169 68.8306 30.2886 68.9927 31.1692C69.3341 33.0276 68.088 34.5641 66.2071 34.6065ZM95.7755 25.5293C96.253 23.965 97.0715 22.3907 98.5058 21.193C98.8749 20.885 99.2736 20.6316 99.729 20.473C101.401 19.8917 102.773 20.8487 102.783 22.6132C102.788 23.3663 102.618 24.0941 102.445 24.8231C102.381 25.0881 102.216 25.113 102.004 25.1412C101.51 25.2079 101.016 25.2772 100.523 25.3465L100.522 25.3465C99.7242 25.4585 98.9261 25.5704 98.1265 25.6715C97.8332 25.7082 97.683 25.8059 97.6259 26.1098C97.6115 26.1864 97.5968 26.2629 97.5821 26.3395L97.582 26.3397L97.582 26.3398L97.582 26.3399C97.4491 27.0306 97.3163 27.721 97.4565 28.428C97.6256 29.2775 98.1035 29.531 98.9019 29.2074C99.6017 28.9236 100.146 28.4435 100.536 27.8069C100.718 27.5096 100.826 27.5474 101.045 27.757L101.073 27.7837C101.626 28.3133 101.64 28.3272 101.094 28.9185C100.071 30.026 98.8364 30.5821 97.3077 30.2539C96.2974 30.0378 95.7419 29.3615 95.5281 28.3804C95.3317 27.4759 95.4865 26.5938 95.7755 25.5293ZM98.0993 24.6385L98.48 24.587C98.7409 24.5519 98.979 24.5198 99.217 24.4862C100.77 24.2669 100.8 24.2393 100.889 22.6709L100.891 22.6291C100.912 22.2523 100.937 21.8245 100.538 21.6346C100.084 21.4185 99.749 21.7448 99.4444 22.0414L99.4337 22.0518C99.3259 22.1568 99.2367 22.2827 99.1503 22.4063C98.6881 23.0611 98.3677 23.782 98.0993 24.6385ZM132.099 15.9422C132.765 15.7603 133.439 15.7644 134.151 15.9609C134.593 16.2881 134.702 15.9425 134.797 15.5716C134.799 15.5643 134.8 15.5568 134.802 15.5493L134.806 15.5277C134.813 15.4917 134.82 15.4557 134.838 15.4252C135.04 15.072 134.864 14.9502 134.534 14.9007C133.231 14.7067 131.961 14.7788 130.769 15.3949C129.025 16.2951 128.429 18.208 129.354 19.9351C129.495 20.1983 129.648 20.4549 129.801 20.7115C129.918 20.9072 130.034 21.1028 130.145 21.3013C130.233 21.4565 130.324 21.6093 130.416 21.7621L130.416 21.7622L130.416 21.7623L130.416 21.7623L130.416 21.7624C130.692 22.2199 130.967 22.6777 131.113 23.2008C131.526 24.6748 130.493 26.0046 128.975 25.9605C128.619 25.9495 128.281 25.8658 127.941 25.7816L127.9 25.7713L127.843 25.7571L127.777 25.7412C127.685 25.7187 127.596 25.6582 127.509 25.5998C127.365 25.5034 127.23 25.4123 127.107 25.5054C126.979 25.6032 126.924 25.7973 126.869 25.9909L126.869 25.991C126.845 26.0753 126.821 26.1595 126.791 26.2357C126.786 26.2489 126.782 26.2629 126.779 26.2769C126.775 26.2965 126.77 26.3161 126.761 26.3334C126.633 26.5705 126.734 26.6455 126.971 26.6971C128.189 26.9621 129.402 26.9593 130.583 26.5567C132.756 25.8174 134.104 23.356 132.659 20.9951C132.474 20.6909 132.291 20.3847 132.109 20.0785C132.005 19.9036 131.9 19.7287 131.796 19.5542C131.727 19.4402 131.655 19.328 131.583 19.2158C131.362 18.871 131.142 18.5263 131.011 18.1326C130.693 17.1762 131.173 16.1942 132.099 15.9422ZM78.297 25.7735C76.6477 24.5846 75.4858 25.4566 74.8787 26.5987C74.1648 27.9391 73.8124 29.3777 73.7314 30.8836C73.7048 31.3712 73.7252 31.9075 74.2665 32.157C74.8314 32.4172 75.3211 32.179 75.7613 31.8195C76.0915 31.5496 76.3485 31.2144 76.5955 30.8691C76.6109 30.8475 76.6263 30.8181 76.6426 30.7869C76.7074 30.6631 76.7873 30.5103 76.9464 30.7021C76.9983 30.7645 77.0793 30.8109 77.161 30.8577C77.3441 30.9626 77.5308 31.0696 77.4015 31.3628C76.7564 32.816 74.6327 33.5697 73.2798 32.8355C72.6108 32.4721 72.2311 31.8921 72.0555 31.1678C71.5259 28.9939 72.9927 25.6818 74.9639 24.633C76.0576 24.0512 77.2035 24.0524 78.3713 24.3895C78.5819 24.4509 78.6403 24.5514 78.5768 24.7583C78.5058 24.9867 78.4447 25.2178 78.3799 25.4626L78.3799 25.4626L78.3799 25.4627L78.3799 25.4627C78.3532 25.5637 78.3258 25.6671 78.297 25.7735ZM101.055 32.7223L101.048 32.7092L101.048 32.7101C101.057 32.7432 101.066 32.7754 101.075 32.8085C101.076 32.8078 101.076 32.8071 101.077 32.8064C101.078 32.8053 101.079 32.8041 101.08 32.8028C101.082 32.8008 101.084 32.7988 101.086 32.7969C101.088 32.7936 101.09 32.7907 101.089 32.7889C101.079 32.7661 101.067 32.7441 101.055 32.7223ZM102.761 15.6755C103.029 15.744 103.355 16.2795 103.285 16.5029C103.208 16.7558 103.004 16.8673 102.773 16.8038C102.416 16.7045 102.332 16.4154 102.417 16.079C102.467 15.8842 102.54 15.6903 102.761 15.6755ZM103.307 15.1154C103.346 15.1497 103.384 15.184 103.421 15.2197C103.629 15.1907 103.696 15.0176 103.719 14.8692C103.758 14.5987 103.745 14.3076 103.409 14.2194C103.173 14.1575 103.017 14.2824 102.99 14.5276C102.959 14.8046 103.132 14.9591 103.307 15.1154Z" fill="#FAFAFA"/>
</svg>
