<svg width="200" height="47" viewBox="0 0 200 47" fill="none" xmlns="http://www.w3.org/2000/svg">
<path d="M65.2555 30.4751L53.065 9.97276C51.0848 6.64295 46.7648 5.54562 43.435 7.52585C41.8205 8.48443 40.6791 10.0169 40.2187 11.8332C39.7583 13.6494 40.0295 15.5414 40.9881 17.1558L53.1849 37.6581C54.1434 39.2726 55.6759 40.414 57.4922 40.8744C58.0724 41.0195 58.6526 41.0951 59.2328 41.0951C60.4815 41.0951 61.7112 40.7609 62.8086 40.105C66.1384 38.1248 67.2357 33.8049 65.2555 30.4751Z" fill="white"/>
<path d="M71.2169 20.4922C75.2188 20.4922 78.463 17.248 78.463 13.2461C78.463 9.2442 75.2188 6 71.2169 6C67.2149 6 63.9707 9.2442 63.9707 13.2461C63.9707 17.248 67.2149 20.4922 71.2169 20.4922Z" fill="white"/>
<path d="M96.1411 18.2091H96.0402L93.3789 9.4873H90.1562L94.1735 21.3939H98.0078L102.025 9.4873H98.8025L96.1411 18.2091Z" fill="white"/>
<path d="M104.738 11.4232C105.142 11.4232 105.489 11.2907 105.772 11.0259C106.056 10.761 106.201 10.4394 106.201 10.061C106.201 9.68889 106.056 9.36726 105.772 9.10239C105.489 8.83751 105.142 8.70508 104.738 8.70508C104.341 8.70508 103.994 8.83751 103.71 9.10239C103.426 9.36726 103.281 9.68889 103.281 10.061C103.281 10.4394 103.426 10.761 103.71 11.0259C103.994 11.2907 104.334 11.4232 104.738 11.4232Z" fill="white"/>
<path d="M106.159 12.4639H103.314V21.3938H106.159V12.4639Z" fill="white"/>
<path d="M112.738 19.212C112.675 19.2246 112.58 19.2435 112.46 19.2687C112.341 19.2877 112.221 19.3003 112.114 19.3003C111.962 19.3003 111.83 19.275 111.723 19.2309C111.615 19.1867 111.533 19.1111 111.477 19.0039C111.42 18.8967 111.395 18.7579 111.395 18.5813V14.5515H113.003V12.4578H111.395V10.3262H108.55V12.4641H107.371V14.5578H108.55V18.903C108.544 19.5084 108.664 20.0066 108.916 20.4102C109.168 20.8138 109.528 21.1039 110.001 21.2931C110.474 21.4823 111.048 21.558 111.71 21.5264C112.051 21.5075 112.347 21.476 112.593 21.4129C112.839 21.3562 113.028 21.3057 113.167 21.2679L112.738 19.212Z" fill="white"/>
<path d="M119.634 21.3945H122.308V15.3214C122.308 14.8484 122.207 14.4259 122.018 14.0601C121.823 13.6943 121.545 13.379 121.192 13.1267C120.833 12.8745 120.416 12.679 119.937 12.5465C119.458 12.4141 118.934 12.3447 118.361 12.3447C117.56 12.3447 116.878 12.4645 116.311 12.7105C115.743 12.9565 115.296 13.2907 114.974 13.7195C114.652 14.1484 114.45 14.634 114.375 15.1763L116.998 15.2709C117.061 14.9808 117.206 14.7601 117.433 14.5961C117.661 14.4322 117.963 14.3502 118.342 14.3502C118.688 14.3502 118.966 14.4322 119.174 14.5961C119.382 14.7601 119.483 14.9871 119.483 15.2898V15.3214C119.483 15.5043 119.414 15.643 119.269 15.7439C119.13 15.8448 118.903 15.9205 118.594 15.9709C118.285 16.0214 117.875 16.0718 117.364 16.1223C116.91 16.1601 116.481 16.2358 116.084 16.343C115.687 16.4565 115.333 16.6142 115.024 16.8286C114.715 17.043 114.476 17.3205 114.305 17.6611C114.129 18.0016 114.047 18.4178 114.047 18.9161C114.047 19.5026 114.173 19.9945 114.425 20.3855C114.678 20.7765 115.024 21.0666 115.466 21.2558C115.907 21.445 116.412 21.5459 116.979 21.5459C117.396 21.5459 117.768 21.4954 118.102 21.3882C118.436 21.281 118.72 21.1233 118.966 20.9152C119.212 20.7071 119.414 20.4485 119.571 20.1458H119.641V21.3945H119.634ZM119.489 18.2223C119.489 18.5124 119.414 18.771 119.269 18.9854C119.124 19.2062 118.922 19.3764 118.676 19.5026C118.43 19.6287 118.152 19.6854 117.85 19.6854C117.522 19.6854 117.257 19.6098 117.042 19.4521C116.834 19.2944 116.727 19.0737 116.727 18.7773C116.727 18.5818 116.778 18.4178 116.878 18.2728C116.979 18.1341 117.118 18.0142 117.307 17.9259C117.497 17.8377 117.724 17.7683 117.988 17.7304C118.121 17.7115 118.26 17.6926 118.398 17.6674C118.537 17.6422 118.682 17.6169 118.815 17.5854C118.947 17.5539 119.073 17.5223 119.187 17.4845C119.3 17.4467 119.401 17.4088 119.477 17.371V18.2223H119.489Z" fill="white"/>
<path d="M137.438 21.393V15.3829C137.438 14.4433 137.174 13.6991 136.65 13.1568C136.127 12.6144 135.439 12.3432 134.594 12.3432C133.938 12.3432 133.364 12.5009 132.879 12.8225C132.393 13.1441 132.065 13.5667 131.901 14.0964H131.807C131.687 13.5604 131.403 13.1378 130.962 12.8162C130.52 12.5009 129.99 12.3369 129.366 12.3369C128.754 12.3369 128.225 12.4946 127.783 12.8099C127.342 13.1252 127.026 13.5541 126.844 14.0964H126.743V12.4567H124.037V21.3867H126.881V16.1019C126.881 15.8055 126.932 15.5532 127.039 15.3325C127.146 15.1181 127.291 14.9478 127.487 14.828C127.682 14.7081 127.897 14.6514 128.143 14.6514C128.508 14.6514 128.805 14.7712 129.032 15.0109C129.259 15.2505 129.372 15.5784 129.372 15.9947V21.3867H132.103V16.0514C132.103 15.6226 132.217 15.2883 132.437 15.0298C132.658 14.7775 132.967 14.6514 133.358 14.6514C133.724 14.6514 134.02 14.7712 134.247 15.0045C134.474 15.2379 134.588 15.5784 134.588 16.0262V21.3867H137.438V21.393Z" fill="white"/>
<path d="M140.631 11.4232C141.034 11.4232 141.381 11.2907 141.665 11.0259C141.949 10.761 142.094 10.4394 142.094 10.061C142.094 9.68889 141.949 9.36726 141.665 9.10239C141.381 8.83751 141.034 8.70508 140.631 8.70508C140.233 8.70508 139.886 8.83751 139.603 9.10239C139.319 9.36726 139.174 9.68889 139.174 10.061C139.174 10.4394 139.319 10.761 139.603 11.0259C139.886 11.2907 140.233 11.4232 140.631 11.4232Z" fill="white"/>
<path d="M142.047 12.4639H139.203V21.3938H142.047V12.4639Z" fill="white"/>
<path d="M146.698 16.3052C146.704 15.9646 146.767 15.6745 146.887 15.4349C147.007 15.1952 147.183 15.0124 147.41 14.8799C147.637 14.7475 147.902 14.6844 148.199 14.6844C148.646 14.6844 149 14.8232 149.252 15.1006C149.504 15.3781 149.63 15.7691 149.624 16.261V21.3945H152.468V15.6998C152.475 15.0313 152.342 14.4448 152.09 13.9403C151.831 13.4357 151.472 13.0447 151.011 12.7673C150.551 12.4898 150.002 12.3447 149.372 12.3447C148.716 12.3447 148.142 12.5024 147.669 12.8114C147.19 13.1204 146.855 13.5493 146.66 14.0979H146.559V12.4582H143.854V21.3882H146.698V16.3052Z" fill="white"/>
<path d="M90.5495 29.2321C90.1395 28.9925 89.6981 28.8664 89.2125 28.8411V28.7276C89.6476 28.633 90.0386 28.4691 90.3666 28.242C90.7008 28.0087 90.9594 27.7186 91.1486 27.3591C91.3378 27.006 91.4324 26.6023 91.4324 26.1483C91.4324 25.5492 91.281 25.0257 90.9783 24.5717C90.6756 24.1176 90.2215 23.7644 89.6161 23.5122C89.0107 23.2599 88.2665 23.1338 87.3773 23.1338H82.4141V35.0404H87.7557C88.6386 35.0404 89.3828 34.8953 90.0008 34.6052C90.6188 34.3151 91.0855 33.9241 91.4134 33.4196C91.7414 32.9151 91.899 32.3475 91.899 31.7043C91.899 31.1304 91.7729 30.6322 91.527 30.2159C91.281 29.7997 90.9594 29.4655 90.5495 29.2321ZM85.2961 25.4167H86.9358C87.4151 25.4167 87.7998 25.5302 88.0836 25.7573C88.3674 25.9843 88.5061 26.2996 88.5061 26.6969C88.5061 26.9744 88.4368 27.2141 88.298 27.4096C88.1593 27.6051 87.9701 27.7564 87.7241 27.8636C87.4782 27.9708 87.2007 28.0213 86.8854 28.0213H85.2898V25.4167H85.2961ZM88.4557 32.3664C88.1593 32.6061 87.6989 32.7196 87.0746 32.7196H85.2961V29.8817H87.125C87.4908 29.8817 87.8061 29.9448 88.071 30.0646C88.3359 30.1844 88.5377 30.361 88.6827 30.5817C88.8278 30.8024 88.8972 31.0673 88.8972 31.3763C88.9035 31.7989 88.7521 32.1268 88.4557 32.3664Z" fill="white"/>
<path d="M99.8777 26.5714C99.2029 26.1867 98.4019 25.9912 97.4623 25.9912C96.5226 25.9912 95.7217 26.1867 95.0469 26.5714C94.3721 26.9561 93.855 27.4985 93.4955 28.1859C93.136 28.8796 92.9531 29.6805 92.9531 30.6012C92.9531 31.5157 93.136 32.3166 93.4955 33.0103C93.8613 33.704 94.3784 34.2401 95.0469 34.6248C95.7217 35.0094 96.5226 35.205 97.4623 35.205C98.4019 35.205 99.2029 35.0094 99.8777 34.6248C100.552 34.2401 101.07 33.6977 101.429 33.0103C101.795 32.3166 101.971 31.5157 101.971 30.6012C101.971 29.6805 101.789 28.8796 101.429 28.1859C101.07 27.4921 100.552 26.9561 99.8777 26.5714ZM98.8875 31.8751C98.7614 32.2472 98.5785 32.5373 98.3452 32.7454C98.1118 32.9535 97.8217 33.0608 97.4812 33.0608C97.128 33.0608 96.8316 32.9535 96.5857 32.7454C96.346 32.5373 96.1568 32.2472 96.0307 31.8751C95.9046 31.5031 95.8415 31.0742 95.8415 30.5823C95.8415 30.0841 95.9046 29.649 96.0307 29.2769C96.1568 28.9048 96.3397 28.6147 96.5857 28.4066C96.8253 28.1985 97.128 28.0913 97.4812 28.0913C97.8217 28.0913 98.1118 28.1985 98.3452 28.4066C98.5785 28.6147 98.7614 28.9048 98.8875 29.2769C99.0137 29.649 99.0767 30.0841 99.0767 30.5823C99.0767 31.0742 99.0137 31.5031 98.8875 31.8751Z" fill="white"/>
<path d="M110.018 26.5714C109.343 26.1867 108.543 25.9912 107.603 25.9912C106.663 25.9912 105.862 26.1867 105.188 26.5714C104.513 26.9561 103.996 27.4985 103.636 28.1859C103.277 28.8796 103.094 29.6805 103.094 30.6012C103.094 31.5157 103.277 32.3166 103.636 33.0103C104.002 33.704 104.519 34.2401 105.188 34.6248C105.862 35.0094 106.663 35.205 107.603 35.205C108.543 35.205 109.343 35.0094 110.018 34.6248C110.693 34.2401 111.21 33.6977 111.57 33.0103C111.935 32.3166 112.112 31.5157 112.112 30.6012C112.112 29.6805 111.929 28.8796 111.57 28.1859C111.21 27.4921 110.693 26.9561 110.018 26.5714ZM109.028 31.8751C108.902 32.2472 108.719 32.5373 108.486 32.7454C108.252 32.9535 107.962 33.0608 107.622 33.0608C107.269 33.0608 106.972 32.9535 106.726 32.7454C106.487 32.5373 106.297 32.2472 106.171 31.8751C106.045 31.5031 105.982 31.0742 105.982 30.5823C105.982 30.0841 106.045 29.649 106.171 29.2769C106.297 28.9048 106.48 28.6147 106.726 28.4066C106.966 28.1985 107.269 28.0913 107.622 28.0913C107.962 28.0913 108.252 28.1985 108.486 28.4066C108.719 28.6147 108.902 28.9048 109.028 29.2769C109.154 29.649 109.217 30.0841 109.217 30.5823C109.217 31.0742 109.154 31.5031 109.028 31.8751Z" fill="white"/>
<path d="M118.072 32.9157C117.952 32.9346 117.832 32.9472 117.725 32.9472C117.574 32.9472 117.441 32.922 117.334 32.8778C117.227 32.8337 117.145 32.758 117.088 32.6508C117.031 32.5436 117.006 32.4048 117.006 32.2283V28.1984H118.614V26.1047H117.006V23.9668H114.162V26.1047H112.982V28.1984H114.162V32.5436C114.155 33.149 114.275 33.6472 114.528 34.0508C114.78 34.4544 115.139 34.7445 115.612 34.9337C116.085 35.1229 116.659 35.1986 117.321 35.1671C117.662 35.1482 117.958 35.1166 118.204 35.0536C118.45 34.9968 118.639 34.9463 118.778 34.9085L118.349 32.8589C118.286 32.8715 118.192 32.8904 118.072 32.9157Z" fill="white"/>
<path d="M125.329 29.7562L123.608 29.4282C123.229 29.3526 122.971 29.2453 122.826 29.1192C122.681 28.9931 122.611 28.8417 122.611 28.6651C122.605 28.4381 122.719 28.2615 122.952 28.1291C123.185 27.9967 123.463 27.9336 123.791 27.9336C124.043 27.9336 124.264 27.9777 124.459 28.0597C124.648 28.1417 124.806 28.2552 124.926 28.4003C125.046 28.5453 125.121 28.7093 125.147 28.8985L127.758 28.8291C127.682 27.9462 127.297 27.2525 126.603 26.748C125.903 26.2435 124.951 25.9912 123.74 25.9912C122.933 25.9912 122.233 26.1047 121.64 26.3255C121.047 26.5462 120.587 26.8741 120.265 27.2966C119.944 27.7192 119.786 28.23 119.786 28.8291C119.78 29.5102 120 30.0715 120.436 30.5129C120.871 30.9544 121.539 31.2571 122.435 31.4148L123.993 31.7112C124.365 31.7805 124.636 31.8751 124.812 32.0013C124.989 32.1211 125.077 32.2851 125.077 32.4869C125.071 32.7139 124.957 32.8905 124.73 33.0292C124.503 33.168 124.207 33.231 123.841 33.231C123.438 33.231 123.103 33.149 122.845 32.9725C122.586 32.7959 122.422 32.5562 122.359 32.2283L119.553 32.2977C119.66 33.1806 120.076 33.8869 120.814 34.4103C121.552 34.9338 122.555 35.1986 123.829 35.1986C124.629 35.1986 125.336 35.0725 125.954 34.8266C126.572 34.5806 127.064 34.2275 127.423 33.7734C127.783 33.3193 127.966 32.7896 127.966 32.1715C127.959 31.522 127.739 30.9985 127.303 30.6012C126.868 30.2039 126.219 29.9327 125.329 29.7562Z" fill="white"/>
<path d="M133.875 32.9157C133.755 32.9346 133.635 32.9472 133.528 32.9472C133.376 32.9472 133.244 32.922 133.137 32.8778C133.029 32.8337 132.947 32.758 132.891 32.6508C132.834 32.5436 132.809 32.4048 132.809 32.2283V28.1984H134.417V26.1047H132.809V23.9668H129.964V26.1047H128.785V28.1984H129.964V32.5436C129.958 33.149 130.078 33.6472 130.33 34.0508C130.583 34.4544 130.942 34.7445 131.415 34.9337C131.888 35.1229 132.462 35.1986 133.124 35.1671C133.465 35.1482 133.761 35.1166 134.007 35.0536C134.253 34.9968 134.442 34.9463 134.581 34.9085L134.152 32.8589C134.089 32.8715 133.994 32.8904 133.875 32.9157Z" fill="white"/>
<path d="M140.805 25.9854C140.32 25.9854 139.891 26.1304 139.519 26.4205C139.153 26.7106 138.888 27.1457 138.724 27.7385H138.629V26.1115H135.867V35.0414H138.711V30.1918C138.711 29.8323 138.787 29.5233 138.938 29.2584C139.09 28.9935 139.304 28.7854 139.569 28.6341C139.84 28.4827 140.143 28.407 140.477 28.407C140.648 28.407 140.843 28.4196 141.064 28.4449C141.284 28.4701 141.461 28.5079 141.593 28.5584V26.0863C141.474 26.0484 141.341 26.0232 141.202 26.0106C141.076 25.998 140.938 25.9854 140.805 25.9854Z" fill="white"/>
<path d="M149.161 26.7732C148.801 26.521 148.385 26.3255 147.906 26.193C147.427 26.0606 146.903 25.9912 146.329 25.9912C145.528 25.9912 144.847 26.111 144.28 26.357C143.712 26.6029 143.264 26.9372 142.943 27.366C142.621 27.7949 142.419 28.2805 142.344 28.8228L144.967 28.9174C145.03 28.6273 145.175 28.4066 145.402 28.2426C145.629 28.0786 145.932 27.9967 146.31 27.9967C146.657 27.9967 146.935 28.0786 147.143 28.2426C147.351 28.4066 147.452 28.6336 147.452 28.9363V28.9679C147.452 29.1507 147.382 29.2895 147.237 29.3904C147.099 29.4913 146.872 29.567 146.563 29.6174C146.254 29.6679 145.844 29.7183 145.333 29.7688C144.879 29.8066 144.45 29.8823 144.053 29.9895C143.655 30.103 143.302 30.2607 142.993 30.4751C142.684 30.6895 142.444 30.967 142.274 31.3076C142.098 31.6481 142.016 32.0643 142.016 32.5625C142.016 33.149 142.142 33.6409 142.394 34.0319C142.646 34.4229 142.993 34.713 143.435 34.9022C143.876 35.0914 144.381 35.1923 144.948 35.1923C145.364 35.1923 145.736 35.1419 146.071 35.0347C146.405 34.9275 146.689 34.7698 146.935 34.5617C147.181 34.3536 147.382 34.095 147.54 33.7923H147.609V35.0347H150.283V28.9616C150.283 28.4886 150.183 28.066 149.993 27.7003C149.798 27.3408 149.52 27.0255 149.161 26.7732ZM147.464 31.8625C147.464 32.1526 147.389 32.4112 147.244 32.6256C147.099 32.8463 146.897 33.0166 146.651 33.1427C146.405 33.2689 146.127 33.3256 145.825 33.3256C145.497 33.3256 145.232 33.2499 145.018 33.0923C144.809 32.9346 144.702 32.7139 144.702 32.4175C144.702 32.222 144.753 32.058 144.854 31.913C144.954 31.7742 145.093 31.6544 145.282 31.5661C145.472 31.4778 145.699 31.4085 145.963 31.3706C146.096 31.3517 146.235 31.3328 146.373 31.3076C146.512 31.2823 146.657 31.2571 146.79 31.2256C146.922 31.194 147.048 31.1625 147.162 31.1247C147.275 31.0868 147.376 31.049 147.452 31.0112V31.8625H147.464Z" fill="white"/>
<path d="M160.502 27.9841C160.168 27.303 159.732 26.8047 159.19 26.4768C158.648 26.1489 158.067 25.9912 157.449 25.9912C156.983 25.9912 156.579 26.0732 156.245 26.2309C155.911 26.3948 155.633 26.5966 155.419 26.8489C155.204 27.1011 155.04 27.3597 154.921 27.6309H154.832V26.1047H152.02V38.3834H154.864V33.5842H154.921C155.04 33.8617 155.211 34.1202 155.438 34.3599C155.665 34.5995 155.936 34.795 156.264 34.9401C156.592 35.0851 156.983 35.1608 157.431 35.1608C158.086 35.1608 158.692 34.9905 159.228 34.65C159.764 34.3094 160.199 33.7986 160.521 33.1175C160.842 32.4364 161 31.5913 161 30.576C161 29.5291 160.836 28.6652 160.502 27.9841ZM157.897 31.831C157.771 32.1905 157.588 32.4616 157.342 32.6571C157.096 32.8526 156.8 32.9535 156.453 32.9535C156.106 32.9535 155.81 32.8526 155.564 32.6571C155.318 32.4616 155.129 32.1842 155.003 31.831C154.87 31.4715 154.807 31.0553 154.807 30.576C154.807 30.0904 154.87 29.6679 155.003 29.3147C155.135 28.9616 155.318 28.6904 155.564 28.5012C155.81 28.312 156.106 28.2174 156.453 28.2174C156.806 28.2174 157.103 28.312 157.349 28.5075C157.588 28.703 157.777 28.9742 157.903 29.3273C158.03 29.6805 158.093 30.0967 158.093 30.576C158.086 31.0553 158.023 31.4715 157.897 31.831Z" fill="white"/>
</svg>
