<svg width="200" height="47" viewBox="0 0 200 47" fill="none" xmlns="http://www.w3.org/2000/svg">
<path d="M151.795 27.353C151.684 27.3497 151.57 27.3429 151.459 27.3496C149.942 27.4606 149.367 26.7342 149.397 25.2478C149.454 22.4564 149.373 19.6618 149.421 16.8671C149.471 13.874 149.259 9.98974 149.491 7C148.123 7.33696 147.114 7.50511 145.903 7.63555C144.087 7.84142 143.697 8.73526 143.898 10.2823C143.949 10.6656 143.878 11.0658 143.908 11.4526C143.979 12.3371 143.693 12.8953 142.701 12.7507C141.231 12.5355 140.828 13.2552 140.976 14.5735C141.043 15.1822 141.02 15.8044 140.983 16.4164C140.929 17.2908 141.329 17.6977 142.173 17.5666C143.831 17.311 143.925 18.2526 143.932 19.544C143.945 22.332 143.653 25.1368 144.157 27.9079C144.615 30.4201 145.943 31.6846 148.449 32.1891C150.335 32.5691 152.239 32.4177 154.136 32.4581C154.808 32.4749 155.114 32.2361 155.208 31.5164C155.71 27.77 155.437 27.4135 151.795 27.353Z" fill="white"/>
<path d="M90.7516 39.8977C90.4725 38.6467 90.2202 37.3855 89.9041 36.1446C89.7124 35.3845 90.0084 35.1962 90.7213 35.1121C95.7659 34.527 96.2872 33.629 94.4712 28.951C92.534 23.9536 90.6776 18.9292 88.7102 13.9452C88.1889 12.6302 88.4883 12.3309 89.8369 12.3242C94.229 12.3007 94.2391 12.2569 95.7155 16.3834C97.2961 20.7957 98.8465 25.2214 100.431 29.6337C101.685 33.1212 99.8991 37.4763 96.5294 39.1309C94.7835 39.9853 93.1606 39.8977 90.7516 39.8977Z" fill="white"/>
<path d="M116.009 7.00098C116.036 12.698 116.059 18.3916 116.086 24.0885C116.1 26.9034 116.281 27.1455 119.123 27.5659C119.819 27.6702 120.132 27.9258 120.092 28.6152C120.085 28.7262 120.092 28.8372 120.095 28.9515C120.229 32.3347 120.031 32.5163 116.618 32.0623C112.649 31.5377 110.793 29.6914 110.695 25.6894C110.561 20.1639 110.662 14.6317 110.631 9.10287C110.628 8.26548 110.984 7.93926 111.758 7.74757C113.361 7.35162 113.65 7.33728 116.009 7.00098Z" fill="white"/>
<path d="M40 14.3852C41.2544 14.1363 42.5391 13.985 43.7599 13.6151C44.8428 13.2855 45.2262 13.5613 45.4717 14.6475C46.3158 18.3973 47.651 22.0361 48.1252 25.8767C48.1554 26.1155 48.3707 26.3307 48.4985 26.556C49.6486 25.2075 49.5511 23.3847 50.6441 21.5787C51.4075 24.2389 52.255 26.5224 52.6821 28.8832C53.0319 30.8136 51.6026 32.1353 49.6217 32.1723C44.6478 32.2665 44.6646 32.2631 43.4169 27.3833C42.5593 24.0304 41.6546 20.6909 40.7264 17.3581C40.3593 16.1027 40 15.9799 40 14.3852Z" fill="white"/>
<path d="M122.33 22.299C122.33 20.9571 122.28 19.6119 122.34 18.2734C122.502 14.6245 124.483 12.5832 128.121 12.3982C129.964 12.304 131.821 12.3007 133.66 12.4049C137.023 12.5966 138.93 14.3958 139.253 17.7252C139.415 19.3866 139.347 21.0748 139.331 22.753C139.32 23.7955 138.779 24.4614 137.683 24.4749C135.386 24.5051 133.092 24.4816 130.795 24.5018C130.096 24.5085 129.749 24.2428 129.786 23.5197C129.806 23.1296 129.837 22.7294 129.776 22.3461C129.497 20.6578 130.139 20.0222 131.875 20.1937C132.712 20.2778 134.027 20.7722 134.01 18.9897C133.993 17.3856 133.122 17.0594 131.733 17.056C127.765 17.0493 127.765 17.0156 127.765 20.9605C127.765 22.5815 127.789 24.2058 127.765 25.8268C127.748 27.0846 128.323 27.6865 129.584 27.6798C131.875 27.6697 134.205 27.885 136.317 26.718C136.98 26.3514 137.266 26.5902 137.652 27.1384C139.667 30.0003 139.371 30.9621 135.981 31.8903C132.85 32.7479 129.652 32.721 126.497 32.0719C123.948 31.5473 122.525 29.6102 122.354 26.6541C122.27 25.2046 122.34 23.7484 122.34 22.2922C122.337 22.299 122.334 22.299 122.33 22.299Z" fill="white"/>
<path d="M87.0961 23.3553C87.0961 24.5861 87.0961 25.8136 87.0961 27.0445C87.0961 30.1015 86.336 31.4165 83.353 32.0924C80.0673 32.8357 76.6672 32.839 73.4118 31.7898C71.1316 31.0533 70.0689 28.9614 70.1294 25.9549C70.1866 23.1468 71.3166 21.361 73.553 20.5505C75.1673 19.9653 76.8488 20.0023 78.5303 20.0259C79.2837 20.036 79.6603 20.4093 79.6469 21.1727C79.6402 21.509 79.6099 21.8486 79.6603 22.1782C79.9193 23.8665 79.3509 24.6769 77.5113 24.4214C76.267 24.2498 75.4363 24.7307 75.5103 26.1802C75.5877 27.7138 76.7109 27.929 77.7669 27.6902C79.0852 27.3909 81.2981 28.948 81.6042 26.456C81.9203 23.8698 81.6748 21.213 81.6614 18.5865C81.658 17.6381 81.13 17.1303 80.2052 17.1034C78.0225 17.0395 75.7995 16.8747 73.8019 17.961C72.9544 18.4217 72.6584 18.0988 72.238 17.4565C70.3682 14.5979 70.5666 13.8648 73.8792 12.8895C76.8791 12.0084 79.9832 12.0857 83.0167 12.6945C85.4246 13.1754 86.8035 14.9645 86.9985 17.6684C87.1364 19.5584 87.0255 21.4652 87.0255 23.3654C87.0456 23.3553 87.0725 23.3553 87.0961 23.3553Z" fill="white"/>
<path d="M59.5801 26.9095C60.895 22.0398 62.1528 17.5838 63.2795 13.0975C63.6023 11.8196 64.2009 11.1974 65.489 11.0494C66.5383 10.9284 67.5707 10.6358 68.6099 10.4205C69.4036 10.2558 69.6121 10.5349 69.3767 11.3117C67.4396 17.725 65.5226 24.1417 63.5956 30.5584C63.5485 30.7164 63.5014 30.8913 63.4005 31.0191C61.7728 33.1681 59.4657 31.8767 57.4714 32.1323C56.3045 32.2803 55.6789 31.4294 55.3662 30.3566C54.2429 26.4992 53.1297 22.6351 51.9594 18.7911C51.6937 17.9235 51.9022 17.5737 52.7732 17.4123C58.2819 16.3966 56.8863 15.6635 58.2416 20.7383C58.7427 22.6149 59.0723 24.5386 59.5801 26.9095Z" fill="white"/>
<path d="M102.228 28.4097C101.404 26.0555 100.596 23.7619 99.7994 21.4684C99.6245 20.9639 99.7826 20.4695 99.934 19.9954C100.627 17.8195 101.377 15.6604 102.019 13.4677C102.268 12.6202 102.688 12.294 103.556 12.3344C104.78 12.3915 106.011 12.3646 107.239 12.3478C107.955 12.3377 108.291 12.5227 107.999 13.3197C106.203 18.2398 104.424 23.1633 102.634 28.0834C102.608 28.1709 102.473 28.218 102.228 28.4097Z" fill="white"/>
<path d="M155.959 20.6585C158.743 20.6585 161 18.4015 161 15.6174C161 12.8332 158.743 10.5762 155.959 10.5762C153.175 10.5762 150.918 12.8332 150.918 15.6174C150.918 18.4015 153.175 20.6585 155.959 20.6585Z" fill="white"/>
</svg>
