<svg width="100" height="100" viewBox="0 0 100 100" fill="none" xmlns="http://www.w3.org/2000/svg">
<path d="M63.6403 27.0334L63.6404 27.0333C64.451 26.207 65.5148 25.7937 66.5796 25.7937C67.6435 25.7937 68.7083 26.207 69.5189 27.0333C71.1421 28.6881 71.1421 31.3806 69.5189 33.0354C67.8983 34.6875 65.261 34.6875 63.6404 33.0354L63.6403 33.0353C62.8537 32.2344 62.4212 31.1686 62.4212 30.0349C62.4212 28.9001 62.8537 27.8343 63.6403 27.0334ZM70.8742 34.4067L70.8742 34.4067C73.2399 31.995 73.2399 28.0716 70.8742 25.6599L70.8742 25.6599C68.5059 23.2467 64.6534 23.2467 62.2851 25.6599L62.285 25.66C61.1393 26.829 60.5083 28.3826 60.5083 30.0338C60.5083 31.3073 60.8845 32.5227 61.5824 33.5481L56.8403 38.1594C56.2643 37.7968 55.5855 37.586 54.8599 37.586C53.5194 37.586 52.3426 38.3016 51.673 39.3744L46.9084 37.8247C46.912 37.7572 46.9141 37.6889 46.9141 37.6199C46.9141 35.5019 45.2236 33.7755 43.1401 33.7755C41.0566 33.7755 39.3661 35.503 39.3661 37.6199C39.3661 38.0632 39.4405 38.4888 39.5766 38.8852L33.9175 42.7568C33.252 42.1579 32.3773 41.7922 31.4204 41.7922C29.3368 41.7922 27.6464 43.5197 27.6464 45.6366C27.6464 47.7545 29.3368 49.482 31.4204 49.482C33.5039 49.482 35.1944 47.7545 35.1944 45.6376C35.1944 45.1943 35.1199 44.7687 34.9839 44.3723L40.6429 40.5008C41.3085 41.1006 42.1833 41.4653 43.1401 41.4653C44.4806 41.4653 45.6574 40.7498 46.327 39.6779L51.0916 41.2276C51.088 41.295 51.0859 41.3631 51.0859 41.4314C51.0859 43.5494 52.7764 45.2758 54.8599 45.2758C56.9434 45.2758 58.6339 43.5483 58.6339 41.4314C58.6339 40.7558 58.4621 40.1203 58.1594 39.5673L62.9022 34.9553C63.9847 35.7958 65.2817 36.2171 66.5796 36.2171C68.1348 36.2171 69.6898 35.613 70.8742 34.4067ZM34.1817 54.0684V68.2058H28.6591V54.0684H34.1817ZM45.9014 46.4617V68.2068H40.3788V46.4617H45.9014ZM52.0986 50.0102H57.6212V68.2068H52.0986V50.0102ZM63.8183 41.5712H69.3409V68.2068H63.8183V41.5712ZM73.1936 68.2068H71.2538V40.5991C71.2538 40.0647 70.8285 39.6269 70.2974 39.6269H62.8619C62.3308 39.6269 61.9054 40.0647 61.9054 40.5991V68.2068H59.5341V49.0381C59.5341 48.5037 59.1087 48.066 58.5776 48.066H51.1421C50.611 48.066 50.1857 48.5037 50.1857 49.0381V68.2068H47.8143V45.4886C47.8143 44.9543 47.389 44.5165 46.8579 44.5165H39.4224C38.8913 44.5165 38.4659 44.9543 38.4659 45.4886V68.2058H36.0946V53.0952C36.0946 52.5609 35.6692 52.1231 35.1381 52.1231H27.7026C27.1715 52.1231 26.7462 52.5609 26.7462 53.0952V68.2058H24.8065C24.2753 68.2058 23.85 68.6436 23.85 69.1779C23.85 69.7122 24.2753 70.15 24.8065 70.15H73.1936C73.7247 70.15 74.15 69.7122 74.15 69.1779C74.15 68.6445 73.7245 68.2068 73.1936 68.2068ZM31.4204 43.7374C32.4437 43.7374 33.2815 44.5873 33.2815 45.6376C33.2815 46.6889 32.4437 47.5378 31.4204 47.5378C30.397 47.5378 29.5593 46.6879 29.5593 45.6376C29.5593 44.5873 30.397 43.7374 31.4204 43.7374ZM43.1401 35.7208C44.1634 35.7208 45.0012 36.5706 45.0012 37.6209C45.0012 38.6723 44.1634 39.5221 43.1401 39.5221C42.1168 39.5221 41.279 38.6723 41.279 37.6209C41.279 36.5706 42.1168 35.7208 43.1401 35.7208ZM54.8599 39.5313C55.8832 39.5313 56.721 40.3811 56.721 41.4314C56.721 42.4817 55.8832 43.3316 54.8599 43.3316C53.8366 43.3316 52.9988 42.4817 52.9988 41.4314C52.9988 40.3811 53.8366 39.5313 54.8599 39.5313Z" fill="#00E594" stroke="#00E594" stroke-width="0.3"/>
<circle cx="50" cy="50" r="48.5" stroke="#00E594" stroke-width="3"/>
</svg>
