<svg width="20" height="20" viewBox="0 0 20 20" fill="none" xmlns="http://www.w3.org/2000/svg">
<path fill-rule="evenodd" clip-rule="evenodd" d="M18 10C18 14.4182 14.4182 18 10 18C5.58179 18 2 14.4182 2 10C2 5.58179 5.58179 2 10 2C14.4182 2 18 5.58179 18 10ZM20 10C20 15.5229 15.5229 20 10 20C4.47705 20 0 15.5229 0 10C0 4.47705 4.47705 0 10 0C15.5229 0 20 4.47705 20 10ZM13.4026 6.29468C13.4102 6.28516 13.4185 6.27612 13.4272 6.26758C13.5994 6.09692 13.8318 6.00073 14.0745 6C14.3169 5.99927 14.55 6.09424 14.7231 6.26416C14.8962 6.43384 14.9958 6.66528 14.9998 6.90771C15.0039 7.15039 14.9126 7.38501 14.7454 7.56055L9.83228 13.7056C9.7478 13.7964 9.646 13.8691 9.53271 13.9197C9.41968 13.9702 9.29736 13.9976 9.17334 13.9998C9.04956 14.0022 8.92627 13.9795 8.81152 13.9331C8.69653 13.8867 8.59204 13.8176 8.50415 13.73L5.2478 10.4705C5.08472 10.2954 4.99585 10.064 5.00024 9.82471C5.00439 9.58545 5.10132 9.35693 5.27026 9.18774C5.36304 9.09497 5.47363 9.02393 5.59399 8.97803C5.69312 8.94019 5.79883 8.91943 5.90674 8.91748C6.146 8.91333 6.37744 9.00195 6.55225 9.16528L9.12817 11.7439L13.4026 6.29468Z" fill="#00E594"/>
</svg>
