<svg width="40" height="40" viewBox="0 0 40 40" fill="none" xmlns="http://www.w3.org/2000/svg">
<path fill-rule="evenodd" clip-rule="evenodd" d="M38 20C38 29.9411 29.9411 38 20 38C10.0589 38 2 29.9411 2 20C2 10.0589 10.0589 2 20 2C29.9411 2 38 10.0589 38 20ZM40 20C40 31.0457 31.0457 40 20 40C8.9543 40 0 31.0457 0 20C0 8.9543 8.9543 0 20 0C31.0457 0 40 8.9543 40 20ZM11.2818 27.7564C11.2591 27.8968 11.2693 28.0394 11.3116 28.1728C11.3538 28.3063 11.427 28.4269 11.5253 28.5252C11.6235 28.6234 11.7442 28.6966 11.8776 28.7389C12.0111 28.7811 12.1536 28.7913 12.294 28.7687L24.7243 26.0714C24.9236 26.0281 25.1041 25.9177 25.2353 25.7588C25.3665 25.5999 25.4401 25.4024 25.4437 25.1999C25.4612 23.3216 25.8637 21.4533 26.6265 19.7102L27.1332 20.2169C27.2946 20.3783 27.5157 20.4666 27.748 20.4624C27.9803 20.4583 28.2047 20.3621 28.3719 20.1949L30.8931 17.6737C31.0603 17.5065 31.1565 17.2821 31.1607 17.0498C31.1648 16.8175 31.0765 16.5964 30.9151 16.435L23.6154 9.13531C23.4541 8.97398 23.233 8.88566 23.0007 8.88979C22.7684 8.89391 22.544 8.99015 22.3768 9.15732L19.8555 11.6786C19.6884 11.8457 19.5921 12.0702 19.588 12.3024C19.5839 12.5347 19.6722 12.7559 19.8335 12.9172L20.3396 13.4233C18.5962 14.1843 16.7285 14.5869 14.8506 14.6068C14.6481 14.6103 14.4506 14.684 14.2917 14.8151C14.1328 14.9463 14.0223 15.1269 13.9791 15.3262L11.2818 27.7564ZM22.9631 11.0043L29.0462 17.0873L27.7856 18.348L21.7025 12.2649L22.9631 11.0043ZM21.5934 14.677L25.3734 18.4571C24.1467 20.2836 23.8141 23.1455 23.7249 24.5085L14.8261 26.441L18.533 22.7341C19.0875 22.9913 19.7222 23.0408 20.3247 22.8739C20.9273 22.7069 21.459 22.3343 21.8259 21.8219C22.1927 21.3095 22.3711 20.6902 22.3294 20.0735C22.2878 19.4569 22.0289 18.8826 21.5984 18.4521C21.1679 18.0216 20.5936 17.7626 19.9769 17.721C19.3603 17.6794 18.741 17.8578 18.2286 18.2246C17.7161 18.5914 17.3435 19.1231 17.1766 19.7257C17.0096 20.3283 17.0591 20.9629 17.3163 21.5175L13.6095 25.2244L15.54 16.3274C16.905 16.2363 19.7669 15.9038 21.5934 14.677Z" fill="#00E594"/>
</svg>
