<svg width="40" height="40" viewBox="0 0 40 40" fill="none" xmlns="http://www.w3.org/2000/svg">
<path fill-rule="evenodd" clip-rule="evenodd" d="M38 20C38 29.9412 29.9412 38 20 38C10.0588 38 2 29.9412 2 20C2 10.0588 10.0588 2 20 2C29.9412 2 38 10.0588 38 20ZM40 20C40 31.0457 31.0457 40 20 40C8.95435 40 0 31.0457 0 20C0 8.95435 8.95435 0 20 0C31.0457 0 40 8.95435 40 20ZM25.8811 12.5476C26.3152 12.1135 27.0183 12.1135 27.4524 12.5476C27.8862 12.9817 27.8862 13.6848 27.4524 14.1189L14.1191 27.4521C13.9021 27.6692 13.6177 27.7778 13.3335 27.7778C13.0491 27.7778 12.7649 27.6692 12.5479 27.4521C12.1138 27.0181 12.1138 26.3149 12.5479 25.8809L25.8811 12.5476ZM18.8933 14.4465C18.8933 11.9944 16.8989 10 14.4465 10C11.9944 10 10 11.9944 10 14.4465C10 16.8989 11.9944 18.8933 14.4465 18.8933C16.8989 18.8933 18.8933 16.8989 18.8933 14.4465ZM12.2224 14.4465C12.2224 13.2205 13.2205 12.2222 14.4468 12.2222C15.6729 12.2222 16.6711 13.2205 16.6711 14.4465C16.6711 15.6729 15.6729 16.6711 14.4468 16.6711C13.2205 16.6711 12.2224 15.6729 12.2224 14.4465ZM21.1067 25.5532C21.1067 23.1011 23.1011 21.1067 25.5532 21.1067C28.0056 21.1067 30 23.1011 30 25.5532C30 28.0056 28.0056 30 25.5532 30C23.1011 30 21.1067 28.0056 21.1067 25.5532ZM23.3289 25.5532C23.3289 26.7793 24.3271 27.7776 25.5532 27.7776C26.7793 27.7776 27.7776 26.7793 27.7776 25.5532C27.7776 24.3269 26.7793 23.3289 25.5532 23.3289C24.3271 23.3289 23.3289 24.3269 23.3289 25.5532Z" fill="#00E594"/>
</svg>
