<svg width="40" height="40" viewBox="0 0 40 40" fill="none" xmlns="http://www.w3.org/2000/svg">
<path fill-rule="evenodd" clip-rule="evenodd" d="M38 20C38 29.9411 29.9411 38 20 38C10.0589 38 2 29.9411 2 20C2 10.0589 10.0589 2 20 2C29.9411 2 38 10.0589 38 20ZM40 20C40 31.0457 31.0457 40 20 40C8.9543 40 0 31.0457 0 20C0 8.9543 8.9543 0 20 0C31.0457 0 40 8.9543 40 20ZM26.0005 19.833C26.0005 19.3731 26.373 18.9997 26.8338 18.9997C27.2946 18.9997 27.6673 19.3722 27.6673 19.833V26.4999C27.6673 27.8783 26.5455 29 25.1672 29H13.5001C12.1217 29 11 27.8783 11 26.4999V14.8328C11 13.4545 12.1217 12.3327 13.5001 12.3327H20.167C20.6278 12.3327 21.0003 12.7061 21.0003 13.1662C21.0003 13.6261 20.6278 13.9995 20.167 13.9995H13.5001C13.04 13.9995 12.6668 14.3737 12.6668 14.8328V26.4999C12.6668 26.9591 13.04 27.3332 13.5001 27.3332H25.1672C25.6271 27.3332 26.0005 26.9591 26.0005 26.4999V19.833ZM16.8135 20.2405C16.7552 20.2988 16.716 20.373 16.6993 20.4529L16.1102 23.3998C16.0827 23.5364 16.126 23.6772 16.2243 23.7764C16.3035 23.8556 16.4102 23.898 16.5194 23.898C16.546 23.898 16.5736 23.8956 16.6011 23.8898L19.547 23.3006C19.6286 23.2838 19.7028 23.2448 19.7603 23.1863L26.3539 16.5928L23.4079 13.647L16.8135 20.2405ZM25.4446 11.6094C26.2563 10.7969 27.5781 10.7969 28.3905 11.6094C28.7839 12.0026 29.0006 12.526 29.0006 13.0827C29.0006 13.6394 28.7839 14.1628 28.3905 14.5552L27.2372 15.7087L24.2913 12.7627L25.4446 11.6094Z" fill="#00E594"/>
</svg>
