<svg width="100" height="100" viewBox="0 0 100 100" fill="none" xmlns="http://www.w3.org/2000/svg">
<path fill-rule="evenodd" clip-rule="evenodd" d="M97 50C97 75.9574 75.9573 97 50 97C24.0427 97 3 75.9574 3 50C3 24.0426 24.0427 3 50 3C75.9573 3 97 24.0426 97 50ZM100 50C100 77.6143 77.6143 100 50 100C22.3857 100 0 77.6143 0 50C0 22.3857 22.3857 0 50 0C77.6143 0 100 22.3857 100 50ZM69 33.1029C69 36.6318 67.1584 39.7443 64.3743 41.552C67.1584 43.3586 69 46.4711 69 50C69 55.5708 64.4116 60.1029 58.7729 60.1029H58.551C55.9055 60.1029 53.4919 59.1062 51.675 57.4703V66.7875C51.675 72.4185 47.012 77 41.2815 77C35.6128 77 31 72.468 31 66.8971C31 63.3682 32.8416 60.2548 35.6257 58.4491C32.8416 56.6414 31 53.5289 31 50C31 46.4711 32.8416 43.3586 35.6257 41.552C32.8416 39.7443 31 36.6318 31 33.1029C31 27.532 35.5884 23 41.2271 23H58.7729C64.4116 23 69 27.532 69 33.1029ZM58.7729 26.3096H51.675V39.8971H58.7729C62.5649 39.8971 65.6501 36.8491 65.6501 33.1029C65.6501 29.3566 62.5649 26.3096 58.7729 26.3096ZM41.2271 26.3096C37.4351 26.3096 34.3499 29.3566 34.3499 33.1029C34.3499 36.8491 37.4351 39.8971 41.2271 39.8971H48.325V26.3096H41.2271ZM41.2271 43.2068C37.4351 43.2068 34.3499 46.2538 34.3499 50C34.3499 53.7314 37.4116 56.7711 41.1831 56.7943H48.325V43.2068H41.2271ZM41.2815 73.6904C45.165 73.6904 48.325 70.5939 48.325 66.7875V60.1029H41.2271C37.4351 60.1029 34.3499 63.1509 34.3499 66.8971C34.3499 70.6434 37.4597 73.6904 41.2815 73.6904ZM58.551 56.7943H58.7729C62.5649 56.7943 65.6501 53.7462 65.6501 50C65.6501 46.2538 62.5649 43.2068 58.7729 43.2068H58.551C54.759 43.2068 51.675 46.2538 51.675 50C51.675 53.7462 54.759 56.7943 58.551 56.7943Z" fill="#00E594"/>
</svg>
