<svg width="40" height="40" viewBox="0 0 40 40" fill="none" xmlns="http://www.w3.org/2000/svg">
<path fill-rule="evenodd" clip-rule="evenodd" d="M38 20C38 29.9412 29.9412 38 20 38C10.0588 38 2 29.9412 2 20C2 10.0588 10.0588 2 20 2C29.9412 2 38 10.0588 38 20ZM40 20C40 31.0457 31.0457 40 20 40C8.95435 40 0 31.0457 0 20C0 8.95435 8.95435 0 20 0C31.0457 0 40 8.95435 40 20ZM26.9204 24.6091V22.7656C26.9204 20.2258 24.9807 18.1562 22.5952 18.1562H17.405C16.927 18.1562 16.54 17.7437 16.54 17.2344V15.3906C16.54 14.8813 16.927 14.4688 17.405 14.4688H22.5952C23.2134 14.4688 23.5142 15.1768 23.8181 15.8923C24.2659 16.9463 24.7202 18.0164 26.2068 16.8633C28.2202 15.3032 25.9517 11.9775 24.3665 11.1985C23.5598 10.8022 22.7314 10.7815 21.8665 10.7815C21.8621 10.7815 21.8345 10.7305 21.7888 10.646C21.5864 10.2703 21.0276 9.23438 20.5669 9.08765C19.9309 8.88477 19.1763 9.03223 18.707 9.55078C18.417 9.87061 18.3435 10.1284 18.2876 10.324C18.2007 10.6284 18.1572 10.7815 17.405 10.7815C15.022 10.7815 13.0798 12.8511 13.0798 15.3906V17.2344C13.0798 19.7764 15.022 21.8438 17.405 21.8438H22.5952C23.071 21.8438 23.4604 22.2561 23.4604 22.7656V24.6091C23.4604 25.1187 23.071 25.531 22.5952 25.531H17.405C16.7869 25.531 16.4861 24.8232 16.1824 24.1079C15.7346 23.0542 15.28 21.9844 13.7935 23.1389C11.78 24.6992 14.0466 28.0247 15.6338 28.8013C16.4426 29.1978 17.2688 29.2185 18.136 29.2185C18.1577 29.2185 18.8691 30.7327 19.4358 30.9124C20.0693 31.1152 20.8264 30.9678 21.2957 30.4514C21.5857 30.1306 21.6592 29.8721 21.7148 29.6763C21.8013 29.3713 21.8447 29.2185 22.5952 29.2185C24.9807 29.2185 26.9204 27.1511 26.9204 24.6091Z" fill="#00E594"/>
</svg>
