<svg width="40" height="40" viewBox="0 0 40 40" fill="none" xmlns="http://www.w3.org/2000/svg">
<path fill-rule="evenodd" clip-rule="evenodd" d="M38 20C38 29.9411 29.9411 38 20 38C10.0589 38 2 29.9411 2 20C2 10.0589 10.0589 2 20 2C29.9411 2 38 10.0589 38 20ZM40 20C40 31.0457 31.0457 40 20 40C8.9543 40 0 31.0457 0 20C0 8.9543 8.9543 0 20 0C31.0457 0 40 8.9543 40 20ZM9 20C9 13.9344 13.9344 9 20 9C26.065 9 31 13.9344 31 20C31 26.065 26.065 31 20 31C13.9344 31 9 26.065 9 20ZM11.2 20C11.2 24.8522 15.1478 28.8 20 28.8C24.8522 28.8 28.8 24.8522 28.8 20C28.8 15.1478 24.8522 11.2 20 11.2C15.1478 11.2 11.2 15.1478 11.2 20ZM25.3 21.1C25.908 21.1 26.4 20.6075 26.4 20C26.4 19.3925 25.908 18.9 25.3 18.9H21.1V14.6C21.1 13.9925 20.6075 13.5 20 13.5C19.3925 13.5 18.9 13.9925 18.9 14.6V20C18.9 20.6075 19.3925 21.1 20 21.1H25.3Z" fill="#00E594"/>
</svg>
