<svg width="112" height="23" viewBox="0 0 112 23" fill="none" xmlns="http://www.w3.org/2000/svg">
<path d="M13.3182 0.181824H19.2415V14.1591C19.2415 15.821 18.8438 17.2592 18.0483 18.4737C17.2599 19.6811 16.1591 20.6151 14.7457 21.2756C13.3324 21.929 11.6918 22.2557 9.82386 22.2557C7.94176 22.2557 6.29403 21.929 4.88068 21.2756C3.46733 20.6151 2.36648 19.6811 1.57812 18.4737C0.796875 17.2592 0.40625 15.821 0.40625 14.1591V0.181824H6.32955V13.6477C6.32955 14.3224 6.47869 14.9261 6.77699 15.4588C7.07528 15.9844 7.48722 16.3963 8.01278 16.6946C8.54545 16.9929 9.14915 17.1421 9.82386 17.1421C10.5057 17.1421 11.1094 16.9929 11.6349 16.6946C12.1605 16.3963 12.5724 15.9844 12.8707 15.4588C13.169 14.9261 13.3182 14.3224 13.3182 13.6477V0.181824Z" fill="url(#paint0_linear_3184_150)"/>
<path d="M27.9799 0.181824V22H22.0566V0.181824H27.9799Z" fill="url(#paint1_linear_3184_150)"/>
<path d="M32.8111 22V5.63637H37.1364V8.52344H37.3281C37.669 7.56464 38.2372 6.80824 39.0327 6.25427C39.8281 5.70029 40.7798 5.4233 41.8878 5.4233C43.0099 5.4233 43.9652 5.70384 44.7536 6.26492C45.5419 6.8189 46.0675 7.57174 46.3303 8.52344H46.5007C46.8345 7.58594 47.4382 6.83665 48.3118 6.27557C49.1925 5.70739 50.233 5.4233 51.4332 5.4233C52.9602 5.4233 54.1996 5.90981 55.1513 6.88282C56.1101 7.84873 56.5895 9.21947 56.5895 10.995V22H52.0618V11.8899C52.0618 10.9808 51.8203 10.299 51.3374 9.84447C50.8544 9.38992 50.2507 9.16265 49.5263 9.16265C48.7024 9.16265 48.0597 9.42543 47.598 9.951C47.1364 10.4695 46.9055 11.1548 46.9055 12.0071V22H42.5057V11.794C42.5057 10.9915 42.2749 10.3523 41.8132 9.87643C41.3587 9.40057 40.7585 9.16265 40.0128 9.16265C39.5085 9.16265 39.054 9.29049 38.6491 9.54617C38.2514 9.79475 37.9354 10.1463 37.701 10.6009C37.4666 11.0483 37.3494 11.5739 37.3494 12.1776V22H32.8111Z" fill="white"/>
<path d="M64.8406 22.309C63.7965 22.309 62.8661 22.1278 62.0494 21.7656C61.2326 21.3963 60.5863 20.853 60.1104 20.1357C59.6417 19.4112 59.4073 18.5092 59.4073 17.4297C59.4073 16.5206 59.5742 15.7571 59.908 15.1392C60.2418 14.5213 60.6964 14.0242 61.2717 13.6477C61.8469 13.2713 62.5004 12.9872 63.2319 12.7955C63.9705 12.6037 64.7447 12.4688 65.5543 12.3906C66.506 12.2912 67.2731 12.1989 67.8555 12.1136C68.4379 12.0213 68.8604 11.8864 69.1232 11.7088C69.386 11.5313 69.5174 11.2685 69.5174 10.9205V10.8565C69.5174 10.1818 69.3043 9.65981 68.8782 9.29049C68.4592 8.92117 67.8626 8.73651 67.0884 8.73651C66.2717 8.73651 65.6218 8.91762 65.1388 9.27984C64.6559 9.63495 64.3363 10.0824 64.18 10.6222L59.9826 10.2813C60.1957 9.28694 60.6147 8.42756 61.2397 7.70313C61.8647 6.9716 62.6708 6.41052 63.658 6.01989C64.6523 5.62216 65.8029 5.4233 67.1097 5.4233C68.0188 5.4233 68.8889 5.52984 69.7198 5.7429C70.5579 5.95597 71.3001 6.28623 71.9464 6.73367C72.5998 7.18111 73.1147 7.7564 73.4911 8.45952C73.8675 9.15555 74.0558 9.99006 74.0558 10.9631V22H69.7518V19.7308H69.6239C69.3611 20.2422 69.0096 20.6932 68.5692 21.0838C68.1289 21.4673 67.5998 21.7692 66.9819 21.9894C66.364 22.2024 65.6502 22.309 64.8406 22.309ZM66.1403 19.1769C66.8079 19.1769 67.3974 19.0455 67.9087 18.7827C68.4201 18.5128 68.8214 18.1506 69.1126 17.696C69.4038 17.2415 69.5494 16.7266 69.5494 16.1513V14.4148C69.4073 14.5071 69.212 14.5923 68.9634 14.6705C68.7219 14.7415 68.4485 14.809 68.1431 14.8729C67.8377 14.9297 67.5323 14.983 67.2269 15.0327C66.9215 15.0753 66.6445 15.1144 66.396 15.1499C65.8633 15.228 65.3981 15.3523 65.0004 15.5227C64.6026 15.6932 64.2937 15.924 64.0735 16.2152C63.8533 16.4993 63.7433 16.8544 63.7433 17.2805C63.7433 17.8984 63.967 18.3707 64.4144 18.6974C64.869 19.0171 65.4443 19.1769 66.1403 19.1769Z" fill="white"/>
<path d="M82.1151 12.5398V22H77.5767V5.63637H81.902V8.52344H82.0938C82.456 7.57174 83.0632 6.8189 83.9155 6.26492C84.7678 5.70384 85.8011 5.4233 87.0156 5.4233C88.152 5.4233 89.1428 5.67188 89.9879 6.16904C90.8331 6.6662 91.4901 7.37643 91.9588 8.29972C92.4276 9.21591 92.6619 10.3097 92.6619 11.581V22H88.1236V12.3906C88.1307 11.3892 87.875 10.608 87.3565 10.0469C86.8381 9.4787 86.1243 9.19461 85.2152 9.19461C84.6044 9.19461 84.0646 9.326 83.5959 9.58878C83.1342 9.85157 82.772 10.2351 82.5092 10.7394C82.2535 11.2365 82.1222 11.8367 82.1151 12.5398Z" fill="white"/>
<path d="M102.269 22.2663C101.026 22.2663 99.9 21.9467 98.8915 21.3075C97.8901 20.6612 97.0946 19.7131 96.5051 18.4631C95.9228 17.206 95.6316 15.6648 95.6316 13.8395C95.6316 11.9645 95.9334 10.4055 96.5371 9.16265C97.1408 7.91265 97.9434 6.9787 98.9448 6.3608C99.9533 5.7358 101.058 5.4233 102.258 5.4233C103.174 5.4233 103.938 5.57955 104.548 5.89205C105.166 6.19745 105.664 6.58097 106.04 7.04262C106.423 7.49716 106.715 7.94461 106.914 8.38495H107.052V0.181824H111.58V22H107.105V19.3793H106.914C106.7 19.8338 106.399 20.2848 106.008 20.7323C105.624 21.1726 105.124 21.5384 104.506 21.8296C103.895 22.1207 103.149 22.2663 102.269 22.2663ZM103.707 18.6548C104.438 18.6548 105.056 18.456 105.561 18.0582C106.072 17.6534 106.463 17.0888 106.732 16.3644C107.009 15.6399 107.148 14.7912 107.148 13.8182C107.148 12.8452 107.013 12 106.743 11.2827C106.473 10.5653 106.083 10.0114 105.571 9.62074C105.06 9.23012 104.438 9.03481 103.707 9.03481C102.961 9.03481 102.333 9.23722 101.821 9.64205C101.31 10.0469 100.923 10.608 100.66 11.3253C100.397 12.0426 100.266 12.8736 100.266 13.8182C100.266 14.7699 100.397 15.6115 100.66 16.343C100.93 17.0675 101.317 17.6357 101.821 18.0476C102.333 18.4524 102.961 18.6548 103.707 18.6548Z" fill="white"/>
<defs>
<linearGradient id="paint0_linear_3184_150" x1="0.40625" y1="0.181824" x2="83.6461" y2="60.7186" gradientUnits="userSpaceOnUse">
<stop stop-color="#00FFA5"/>
<stop offset="0.115" stop-color="#3AFFB9"/>
<stop offset="1" stop-color="#00E693"/>
</linearGradient>
<linearGradient id="paint1_linear_3184_150" x1="0.40625" y1="0.181824" x2="83.6461" y2="60.7186" gradientUnits="userSpaceOnUse">
<stop stop-color="#00FFA5"/>
<stop offset="0.115" stop-color="#3AFFB9"/>
<stop offset="1" stop-color="#00E693"/>
</linearGradient>
</defs>
</svg>
