<svg width="100" height="100" viewBox="0 0 100 100" fill="none" xmlns="http://www.w3.org/2000/svg">
<path fill-rule="evenodd" clip-rule="evenodd" d="M97 50C97 75.9574 75.9573 97 50 97C24.0427 97 3 75.9574 3 50C3 24.0426 24.0427 3 50 3C75.9573 3 97 24.0426 97 50ZM100 50C100 77.6143 77.6143 100 50 100C22.3857 100 0 77.6143 0 50C0 22.3857 22.3857 0 50 0C77.6143 0 100 22.3857 100 50ZM31.9487 28C29.7678 28 28 29.7679 28 31.9487V68.0513C28 70.2321 29.7678 72 31.9487 72H68.0513C70.2322 72 72 70.2321 72 68.0513V31.9487C72 29.7679 70.2322 28 68.0513 28H31.9487ZM68.6155 44.9231V68.0513C68.6155 68.3629 68.3628 68.6154 68.0513 68.6154H31.9487C31.8325 68.6154 31.7244 68.5802 31.6345 68.5199C31.55 68.4631 31.4817 68.384 31.438 68.2911C31.4038 68.2184 31.3845 68.1371 31.3845 68.0513V44.9231H68.6155ZM36.4614 38.7179C35.2153 38.7179 34.2051 37.7078 34.2051 36.4615C34.2051 35.2153 35.2153 34.2051 36.4614 34.2051C37.7078 34.2051 38.718 35.2153 38.718 36.4615C38.718 37.7078 37.7078 38.7179 36.4614 38.7179ZM45.4871 36.4615C45.4871 37.7078 44.4771 38.7179 43.2307 38.7179C41.9846 38.7179 40.9744 37.7078 40.9744 36.4615C40.9744 35.2153 41.9846 34.2051 43.2307 34.2051C44.4771 34.2051 45.4871 35.2153 45.4871 36.4615ZM50 38.7179C48.7539 38.7179 47.7437 37.7078 47.7437 36.4615C47.7437 35.2153 48.7539 34.2051 50 34.2051C51.2463 34.2051 52.2563 35.2153 52.2563 36.4615C52.2563 37.7078 51.2463 38.7179 50 38.7179ZM35 49H62V52H35V49ZM48 55H35V58H48V55ZM35 61H53V64H35V61Z" fill="#00E594"/>
</svg>
